<svg xmlns="http://www.w3.org/2000/svg" fill="none" viewBox="0 0 182 402" height="402" width="182">
<g clip-path="url(#clip0_4504_356)">
<path fill="#0F2341" d="M177.858 186.882C165.778 187.209 154.121 182.922 142.244 180.698C132.196 178.813 121.737 178.415 111.802 180.817C103.316 182.869 95.3953 186.906 86.8671 188.791C62.3374 194.208 36.6635 181.216 11.9848 185.943C9.11827 186.49 6.23979 187.304 3.83808 188.957C3.83808 188.957 2.37202 333.7 2.59848 339.699C4.36848 385.614 10.5963 394.996 12.6285 395.621C35.6385 402.685 81.0029 401.222 118.834 400.919C156.666 400.615 166.106 394.729 166.106 394.729C170.826 391.197 179.014 382.082 178.424 293.778C178.335 280.703 178.818 260.297 178.716 240.8C178.567 212.902 177.846 186.876 177.846 186.876L177.858 186.882Z"></path>
<path fill="#0F2341" d="M166.809 101.83C166.809 101.997 166.791 102.163 166.75 102.324C166.732 102.401 166.702 102.478 166.678 102.555C166.595 102.888 166.535 102.627 166.72 102.508C166.618 102.573 166.505 102.865 166.434 102.966C166.368 103.049 166.291 103.126 166.231 103.215C166.148 103.34 166.654 102.817 166.291 103.144C166.112 103.305 165.945 103.465 165.754 103.614C165.659 103.691 165.546 103.751 165.462 103.834C165.438 103.858 165.999 103.471 165.748 103.626C165.659 103.679 165.576 103.745 165.486 103.804C165.248 103.959 165.009 104.101 164.759 104.238C164.628 104.309 164.497 104.381 164.36 104.452C163.871 104.72 165.009 104.149 164.348 104.452C163.686 104.755 162.989 105.059 162.298 105.326C161.928 105.469 161.553 105.6 161.183 105.731C160.73 105.891 161.779 105.534 161.451 105.641C161.35 105.671 161.249 105.707 161.153 105.742C160.909 105.826 160.659 105.903 160.414 105.98C158.436 106.593 156.422 107.098 154.395 107.55C153.853 107.669 153.305 107.788 152.756 107.901C152.59 107.937 152.417 107.972 152.25 108.002C151.791 108.097 152.381 107.972 152.441 107.966C152.089 108.008 151.743 108.103 151.392 108.168C150.104 108.412 148.817 108.638 147.524 108.846C144.616 109.322 141.695 109.72 138.775 110.071C135.486 110.464 132.19 110.797 128.894 111.076C127.142 111.225 125.39 111.361 123.632 111.486C122.768 111.546 121.91 111.605 121.045 111.659C120.61 111.688 120.169 111.712 119.734 111.742C119.514 111.754 119.293 111.766 119.073 111.784C118.942 111.79 118.811 111.801 118.674 111.807C118.882 111.795 118.834 111.795 118.53 111.813C102.38 112.699 86.158 112.812 70.0015 111.998C66.384 111.813 62.7666 111.581 59.161 111.284C57.4744 111.147 55.7879 110.993 54.1073 110.826C53.3504 110.755 54.3099 110.85 53.8689 110.802C53.6782 110.785 53.4815 110.761 53.2908 110.743C52.9094 110.701 52.528 110.66 52.1406 110.624C51.3182 110.535 50.4958 110.44 49.6674 110.345C44.2144 109.702 38.7673 108.894 33.4037 107.728C31.2582 107.265 29.1247 106.735 27.0209 106.105C26.8839 106.064 26.1985 105.849 26.717 106.016C26.5084 105.951 26.2998 105.885 26.0912 105.814C25.6502 105.671 25.2152 105.522 24.7801 105.362C24.0292 105.094 23.2843 104.803 22.5572 104.482C21.9255 104.202 21.3057 103.905 20.7038 103.572C20.4475 103.429 20.1972 103.287 19.9529 103.132C19.8515 103.067 19.4284 102.769 19.8873 103.097C19.7621 103.007 19.637 102.918 19.5118 102.829C19.1304 102.544 18.7669 102.228 18.451 101.872C18.3199 101.723 18.2067 101.568 18.0875 101.408C17.9683 101.247 17.9624 101.051 18.0994 101.444C18.0637 101.348 18.0041 101.259 17.9624 101.164C17.8968 101.015 17.8432 100.855 17.8074 100.694C17.7895 100.617 17.7836 100.54 17.7657 100.457C17.712 100.177 17.8193 100.237 17.7478 100.486C17.7955 100.326 17.7776 99.5706 17.9802 99.5111C17.9445 99.523 17.718 99.9333 17.9564 99.5884C18.01 99.5171 18.0517 99.4338 18.1054 99.3625C18.159 99.2911 18.2186 99.2138 18.2782 99.1365C18.5762 98.7262 17.9981 99.3862 18.2186 99.19C18.3914 99.0414 18.5464 98.8749 18.7192 98.7322C18.8086 98.6549 18.904 98.5895 18.9934 98.5181C19.3509 98.2268 18.457 98.8689 18.9159 98.5776C19.1543 98.4289 19.3867 98.2743 19.6251 98.1316C19.7502 98.0603 19.8694 97.9889 19.9946 97.9235C20.227 97.7987 20.8408 97.5965 19.9707 97.9235C20.6203 97.6798 21.2461 97.3349 21.8957 97.0852C22.2413 96.9484 22.593 96.8235 22.9446 96.6987C23.0161 96.6749 23.0936 96.6511 23.1651 96.6214C23.624 96.4549 22.4678 96.8473 22.9386 96.6987C23.171 96.6214 23.4035 96.5441 23.6359 96.4727C24.5179 96.1933 25.4059 95.9435 26.2998 95.7116C27.2951 95.45 28.3022 95.2122 29.3094 94.9922C29.8279 94.8792 30.3404 94.7722 30.8589 94.6652C31.0198 94.6354 31.1807 94.6057 31.3357 94.57C31.288 94.5819 30.6622 94.7008 31.1211 94.6116C31.4489 94.5462 31.7826 94.4868 32.1104 94.4214C34.6492 93.9516 37.2059 93.5533 39.7625 93.2084C46.0678 92.3581 52.4148 91.7873 58.7677 91.377C62.1706 91.157 65.5974 90.9787 69.3162 90.836C73.2614 90.6814 77.2126 90.5803 81.1638 90.5208C89.4953 90.396 97.8328 90.4435 106.158 90.717C113.608 90.9608 121.057 91.3711 128.483 92.0311C131.695 92.3165 134.466 92.6019 137.798 93.0122C140.647 93.363 143.495 93.7673 146.326 94.243C148.793 94.6533 151.255 95.123 153.692 95.676C154.741 95.9138 155.784 96.1695 156.821 96.4489C157.298 96.5798 157.774 96.7106 158.251 96.8473C158.466 96.9127 158.686 96.9781 158.901 97.0435C158.984 97.0673 159.068 97.0971 159.157 97.1208C158.621 96.9543 159.199 97.1327 159.3 97.1684C160.784 97.65 162.256 98.1911 163.645 98.8987C163.913 99.0354 164.181 99.1781 164.443 99.3268C164.568 99.3981 164.688 99.4695 164.807 99.5468C164.926 99.6241 165.397 99.9689 164.932 99.6181C165.325 99.9154 165.719 100.195 166.058 100.558C166.195 100.7 166.314 100.855 166.44 101.009C166.499 101.081 166.535 101.17 166.595 101.241C166.297 100.908 166.505 101.045 166.565 101.206C166.684 101.533 166.791 101.83 166.797 102.187C166.797 102.591 167.536 102.823 167.798 102.882C168.394 103.007 169.151 102.93 169.729 102.764C170.677 102.49 171.994 101.949 171.982 100.801C171.958 98.6846 169.39 97.2398 167.775 96.4192C164.354 94.6949 160.51 93.7257 156.791 92.8814C144.449 90.0808 131.659 89.0284 119.049 88.3089C102.541 87.3635 85.9613 87.316 69.4473 88.0176C56.5269 88.5706 43.5052 89.4684 30.8053 91.9954C26.8362 92.7862 22.8135 93.7316 19.0768 95.3252C16.7526 96.3122 13.743 97.7452 12.7537 100.266C12.0385 102.086 13.2841 103.774 14.6846 104.833C17.3187 106.819 20.5667 107.889 23.6895 108.834C28.3142 110.232 33.0759 111.153 37.8436 111.92C44.3097 112.961 50.8355 113.662 57.3672 114.192C73.6309 115.512 89.9959 115.684 106.301 115.149C120.33 114.691 134.46 113.787 148.311 111.409C152.941 110.612 157.602 109.685 162.071 108.204C165.027 107.223 168.43 106.064 170.635 103.751C171.303 103.049 171.976 102.169 171.988 101.158C172 100.046 170.629 99.9511 169.759 100.082C169.074 100.183 168.388 100.379 167.798 100.742C167.459 100.95 166.815 101.372 166.809 101.818V101.83Z"></path>
<path fill="#0F2341" d="M13.4092 101.01C12.9503 103.151 12.0802 105.309 11.9967 107.515C11.9431 108.948 12.1159 110.393 12.2947 111.814C12.4378 112.973 12.6106 114.133 12.7834 115.292C12.9264 116.262 12.9503 117.409 13.2721 118.337C13.725 119.645 15.5427 120.204 16.7167 120.584C18.9576 121.31 21.3056 121.756 23.6239 122.16C30.5728 123.373 37.617 124.063 44.6434 124.651C52.9868 125.353 61.3541 125.846 69.7214 126.144C76.9623 126.399 84.233 126.56 91.4739 126.269C92.1473 126.239 92.8207 126.209 93.4942 126.168C94.251 126.126 95.3059 125.615 95.3953 124.77C95.4847 123.926 94.4835 123.587 93.7981 123.629C90.7826 123.801 87.761 123.855 84.7455 123.866C80.9969 123.878 77.4152 123.819 73.911 123.718C65.7046 123.48 57.4982 123.04 49.3157 122.41C42.0569 121.851 34.7862 121.179 27.5811 120.085C26.1985 119.877 24.8099 119.645 23.4332 119.383C22.8313 119.27 22.2353 119.151 21.6394 119.02C21.5083 118.991 21.3771 118.961 21.246 118.931C20.8587 118.848 21.3712 118.961 21.1686 118.913C20.9004 118.848 20.6262 118.783 20.3581 118.717C19.5178 118.503 18.6774 118.265 17.8669 117.95C17.718 117.891 17.569 117.831 17.42 117.766C17.3544 117.736 17.2829 117.7 17.2173 117.671C16.9253 117.546 17.5332 117.867 17.2769 117.7C17.0803 117.576 16.8836 117.427 16.6869 117.314C16.4903 117.201 16.8836 117.623 16.7167 117.326C16.5558 117.046 16.7167 117.409 16.7287 117.397C16.7525 117.385 16.5737 116.488 16.5618 116.41C16.4486 115.691 16.3413 114.965 16.234 114.246C16.0671 113.128 15.9062 112.004 15.7632 110.886C15.7155 110.482 15.6679 110.078 15.6261 109.673C15.6083 109.477 15.5844 109.275 15.5665 109.079C15.5606 108.996 15.5546 108.912 15.5487 108.835C15.5308 108.591 15.5487 108.9 15.5487 108.758C15.4235 106.718 15.9003 104.946 16.4068 102.99C16.5976 102.247 16.7763 101.498 16.9372 100.749C17.122 99.8983 15.9658 99.5653 15.3401 99.607C14.5117 99.6664 13.6237 100.148 13.439 101.004L13.4092 101.01Z"></path>
<path fill="#0F2341" d="M123.173 124.401C126.546 124.496 129.919 124.122 133.263 123.729C137.613 123.218 141.952 122.588 146.284 121.934C150.313 121.327 154.33 120.679 158.358 120.073C160.164 119.799 162.071 119.674 163.8 119.068C165.808 118.36 167.62 117.153 168.883 115.417C171.857 111.32 171.833 105.838 171.13 101.045C171.005 100.195 169.7 100.142 169.08 100.302C168.317 100.504 167.548 101.105 167.673 101.967C168.245 105.856 168.353 110.327 166.326 113.841C165.522 115.233 164.461 116.124 163.043 116.701C162.995 116.719 162.715 116.814 162.989 116.719C162.876 116.755 162.757 116.796 162.643 116.826C162.435 116.885 162.226 116.939 162.012 116.987C161.976 116.993 161.6 117.076 161.779 117.04C161.934 117.01 161.618 117.064 161.63 117.064C161.434 117.094 161.243 117.117 161.046 117.147C160.301 117.254 159.556 117.367 158.817 117.48C150.808 118.693 142.822 120.031 134.782 121.018C132.756 121.268 130.724 121.494 128.692 121.66C127.851 121.726 127.005 121.785 126.159 121.821C125.783 121.838 125.402 121.85 125.026 121.856C124.871 121.856 124.717 121.856 124.568 121.856C124.442 121.856 123.817 121.838 124.371 121.856C123.537 121.833 122.506 122.076 122.124 122.921C121.79 123.652 122.422 124.377 123.185 124.401H123.173Z"></path>
<path fill="#0F2341" d="M24.6965 105.464C23.9397 105.779 24.7561 105.494 24.8157 105.441C24.6727 105.583 24.3866 105.565 24.7323 105.47C24.8575 105.435 24.9886 105.399 25.1137 105.363C25.3581 105.298 25.6024 105.238 25.8467 105.179C25.9898 105.143 26.1388 105.108 26.2818 105.078C26.7824 104.959 26.0077 105.137 26.5261 105.024C28.1114 104.685 29.7026 104.382 31.2998 104.097C33.2009 103.758 35.102 103.449 37.0091 103.157C38.0043 103.003 38.9936 102.854 39.9889 102.711C40.4299 102.646 40.8768 102.586 41.3179 102.521C41.9198 102.438 42.1105 102.414 42.617 102.343C46.0736 101.885 49.5004 101.599 52.9808 101.409C59.2443 101.064 65.5019 100.583 71.7654 100.208C78.7798 99.786 85.8062 99.5243 92.8326 99.7027C93.649 99.7205 94.5847 99.4946 95.276 99.0487C95.8064 98.7097 95.7647 98.3233 95.0793 98.3054C82.0993 97.9784 69.173 99.1735 56.2347 99.9346C52.3967 100.161 48.6124 100.386 44.7983 100.88C40.7576 101.403 36.723 102.004 32.7062 102.699C30.817 103.026 28.9338 103.371 27.0565 103.782C25.5845 104.103 24.1065 104.436 22.712 105.018C22.3723 105.161 21.5797 105.678 22.2829 105.904C22.9861 106.13 24.041 105.738 24.6965 105.458V105.464Z"></path>
<path fill="#0F2341" d="M113.065 99.8209C120.33 99.8328 127.595 100.065 134.842 100.528C140.7 100.903 146.636 101.272 152.363 102.627C155.176 103.293 158.09 104.215 160.486 105.88C161.124 106.32 162.083 106.124 162.757 105.85C163.019 105.743 164.33 105.012 163.71 104.584C159.145 101.426 153.227 100.404 147.822 99.7258C140.968 98.8636 134.013 98.5425 127.112 98.2809C122.893 98.1203 118.673 98.0431 114.454 98.0371C113.721 98.0371 112.607 98.2928 112.166 98.9468C111.725 99.6009 112.547 99.8328 113.065 99.8328V99.8209Z"></path>
<path fill="#0F2341" d="M161.338 131.038C165.575 131.008 169.24 134.266 171.332 137.679C173.859 141.806 174.509 146.866 174.967 151.587C176.016 162.421 176.702 173.296 177.238 184.165C178.329 206.105 178.597 228.076 178.496 250.04C178.394 272.046 177.965 294.046 177.5 316.046C177.274 326.886 176.976 337.731 176.362 348.559C176.058 353.969 175.671 359.374 175.176 364.773C174.771 369.167 174.36 373.585 173.43 377.908C171.857 385.209 168.454 392.892 160.921 395.579C157.303 396.869 153.418 397.375 149.615 397.761C145.146 398.213 140.658 398.421 136.176 398.695C134.043 398.826 131.909 398.968 129.776 399.159C129.091 399.218 127.928 399.658 127.851 400.473C127.773 401.287 128.775 401.525 129.412 401.472C138.435 400.675 147.589 400.77 156.505 399.028C160.027 398.338 163.638 397.292 166.642 395.27C169.991 393.016 172.524 389.633 174.199 386.006C178.066 377.646 178.424 367.907 179.127 358.875C180.009 347.619 180.456 336.34 180.76 325.06C181.368 302.281 181.749 279.49 181.934 256.705C182.113 233.974 181.94 211.237 180.939 188.523C180.438 177.25 179.741 165.988 178.782 154.744C178.013 145.778 177.125 134.492 167.84 130.045C165.885 129.111 163.865 128.719 161.701 128.731C159.812 128.743 158.978 131.062 161.338 131.044V131.038Z"></path>
<path fill="#0F2341" d="M129.812 399.253C128.155 399.419 126.486 399.455 124.83 399.509C124.013 399.538 123.888 399.538 123.238 399.556C122.529 399.574 121.826 399.592 121.117 399.61C119.46 399.645 117.809 399.681 116.152 399.705C107.463 399.848 98.7742 399.883 90.0792 399.854C79.924 399.818 69.7629 399.699 59.6137 399.425C50.6863 399.188 41.7469 398.866 32.8432 398.165C31.0911 398.028 29.339 397.874 27.5928 397.689C26.836 397.606 26.0731 397.523 25.3163 397.428C24.9647 397.386 24.613 397.338 24.2555 397.291C23.9813 397.255 23.4152 397.172 23.4211 397.172C22.2948 397.005 21.1744 396.809 20.0599 396.553C19.6129 396.452 19.16 396.339 18.719 396.203C18.5521 396.149 18.3853 396.096 18.2184 396.042C17.9621 395.953 18.3614 396.131 17.9681 395.941C16.2696 395.121 14.9049 393.497 13.7785 392.035C11.645 389.264 10.2743 386.005 9.31477 382.658C7.13951 375.053 6.77002 366.907 6.18598 359.064C4.79739 340.335 4.54113 321.545 4.1776 302.774C3.82002 284.08 3.49224 265.386 3.46245 246.686C3.43265 227.998 3.69487 209.309 4.52325 190.639C4.94042 181.262 5.49467 171.898 6.2277 162.539C6.57931 158.079 6.83558 153.572 7.50305 149.148C8.09305 145.224 9.13598 141.24 11.5496 138.012C13.4865 135.419 16.4424 133.183 19.8096 133.207C20.5724 133.207 21.6869 132.975 22.0802 132.226C22.4497 131.525 21.7644 131.073 21.1028 131.073C13.3256 131.019 7.54477 136.941 5.28012 143.958C3.93921 148.108 3.62336 152.508 3.25386 156.825C2.84265 161.587 2.47315 166.356 2.15134 171.125C0.870023 190.3 0.274064 209.518 0.0773974 228.729C-0.119269 247.869 0.0893166 267.009 0.411135 286.149C0.732953 305.134 0.935579 324.138 1.76396 343.111C2.17517 352.595 2.77709 362.073 3.75447 371.515C4.4875 378.573 5.64366 385.976 9.59487 392.041C11.4721 394.924 13.8321 397.487 17.2053 398.391C19.7023 399.057 22.3067 399.372 24.8693 399.675C33.028 400.626 41.2641 400.983 49.4645 401.286C59.721 401.673 69.9894 401.857 80.2518 401.947C89.8408 402.03 99.4298 402.03 109.013 401.929C115.157 401.863 121.319 401.822 127.464 401.501C128.107 401.465 128.751 401.435 129.389 401.37C130.026 401.304 131.242 400.906 131.331 400.127C131.421 399.348 130.378 399.205 129.806 399.259L129.812 399.253Z"></path>
<path fill="#0F2341" d="M12.3601 115.756C12.3482 119.335 11.9012 122.938 12.6402 126.482C13.0455 128.432 13.9334 130.823 15.8942 131.685C17.8549 132.547 20.0599 132.85 22.11 133.249C25.8347 133.974 29.5893 134.545 33.3498 135.074C38.4929 135.799 43.6539 136.418 48.8209 136.965C54.9414 137.613 61.0738 138.16 67.2122 138.606C73.9465 139.099 80.6928 139.462 87.4391 139.7C94.2449 139.938 101.057 140.039 107.869 139.938C114.68 139.837 120.926 139.569 127.428 139.004C133.358 138.493 139.276 137.738 145.116 136.56C150.027 135.567 154.908 134.253 159.52 132.273C160.468 131.869 161.398 131.429 162.309 130.953C162.953 130.614 163.615 129.818 163.102 129.092C162.59 128.367 161.427 128.426 160.742 128.783C159.812 129.265 158.865 129.711 157.899 130.127C157.411 130.335 156.916 130.537 156.421 130.727C156.296 130.775 156.171 130.823 156.04 130.87C155.653 131.019 156.302 130.775 155.992 130.888C155.712 130.989 155.438 131.09 155.158 131.191C152.869 131.994 150.533 132.66 148.173 133.231C145.593 133.855 142.982 134.366 140.36 134.806C140.789 134.735 140.283 134.818 140.181 134.836C140.015 134.866 139.842 134.89 139.675 134.919C139.311 134.979 138.942 135.032 138.572 135.086C137.851 135.193 137.136 135.294 136.415 135.395C134.961 135.591 133.507 135.764 132.047 135.924C125.765 136.608 119.448 136.977 113.131 137.167C106.474 137.363 99.8112 137.357 93.1483 137.203C91.4499 137.161 89.7514 137.113 88.0469 137.054C87.6715 137.042 87.6119 137.036 87.0874 137.018C86.6762 137 86.271 136.989 85.8598 136.971C85.0135 136.935 84.1732 136.899 83.3269 136.864C80.0194 136.715 76.7178 136.537 73.4102 136.323C67.1645 135.924 60.9308 135.419 54.703 134.818C49.3155 134.295 43.94 133.694 38.5704 132.999C34.3987 132.458 30.2329 131.863 26.091 131.138C24.6011 130.876 23.1112 130.603 21.6332 130.287C21.0611 130.169 20.495 130.038 19.9288 129.901C19.8096 129.871 19.6845 129.836 19.5653 129.812C19.4937 129.794 20.0241 129.937 19.744 129.859C19.6785 129.842 19.6189 129.824 19.5533 129.812C19.3507 129.758 19.1481 129.705 18.9455 129.645C18.6236 129.55 18.2959 129.449 17.98 129.324C17.8847 129.283 17.7595 129.199 17.6582 129.182C17.98 129.235 17.9502 129.431 17.7595 129.217C15.7034 126.952 15.6558 123.242 15.7034 120.263C15.7332 118.687 15.8465 117.111 15.8524 115.536C15.8584 113.663 12.3482 114.114 12.3422 115.761L12.3601 115.756Z"></path>
<path fill="#0F2341" d="M160.778 128.938C160.605 129.01 160.432 129.081 160.259 129.152C160.134 129.206 159.997 129.248 159.872 129.301C159.669 129.39 160.319 129.164 160.057 129.236C159.681 129.331 159.979 129.158 160.754 129.2L161.725 129.646H161.719C161.737 129.937 161.755 130.235 161.773 130.538C161.439 131.311 161.135 131.067 161.553 130.889C161.189 131.043 161.934 130.686 161.994 130.651C162.518 130.371 163.037 130.086 163.549 129.783C164.395 129.277 165.176 128.695 165.897 128.029C166.97 127.042 167.816 125.817 168.293 124.437C169.407 121.232 169.157 117.653 169.598 114.323C169.819 112.664 166.302 113.164 166.112 114.626C165.867 116.476 165.754 118.331 165.611 120.186C165.51 121.512 165.349 123.159 164.967 124.247C164.503 125.573 163.746 126.554 162.834 127.285C162.155 127.826 161.463 128.261 160.748 128.641C160.033 129.022 158.823 129.45 158.489 130.223C158.376 130.478 158.305 130.889 158.543 131.121C159.58 132.113 161.159 131.293 162.262 130.823C162.852 130.573 163.609 129.801 163.102 129.141C162.596 128.481 161.433 128.659 160.772 128.938H160.778Z"></path>
<path fill="#0F2341" d="M146.785 177.046C147.238 176.57 147.303 175.667 147.446 175.06C147.732 173.829 147.995 172.592 148.257 171.35C149.192 166.908 150.086 162.461 150.98 158.013C152.297 151.466 153.591 144.914 154.884 138.362C156.433 130.513 157.971 122.658 159.509 114.804C161.177 106.265 162.84 97.727 164.503 89.1826C166.142 80.7572 167.775 72.3318 169.407 63.9004C170.885 56.2777 172.357 48.655 173.835 41.0263C175.015 34.9198 176.195 28.8193 177.369 22.7128C178.114 18.8479 178.859 14.9771 179.604 11.1123C179.771 10.2382 179.938 9.37009 180.105 8.49603C180.671 5.54684 179.062 2.91278 176.338 1.7117C174.765 1.02197 172.822 0.932779 171.136 0.677103C169.658 0.451156 168.168 0.141967 166.678 0.00520994C165.188 -0.131547 164.306 0.825752 163.835 2.08035C162.739 4.99387 162.101 8.12144 161.392 11.142C160.134 16.5052 158.99 21.8923 157.864 27.2793C156.374 34.4204 154.938 41.5734 153.519 48.7264C151.892 56.9496 150.295 65.1788 148.716 73.408C147.059 82.0475 145.414 90.6929 143.787 99.3443C142.16 107.996 140.682 115.91 139.145 124.198C137.78 131.542 136.427 138.879 135.074 146.222C134.043 151.835 133.018 157.448 131.993 163.061C131.397 166.325 130.801 169.596 130.211 172.86C130.116 173.371 130.026 173.889 129.931 174.4C129.615 176.154 133.149 175.744 133.435 174.156C133.769 172.319 134.103 170.482 134.437 168.644C135.253 164.149 136.075 159.648 136.898 155.153C138.09 148.642 139.288 142.125 140.491 135.615C141.934 127.802 143.382 119.989 144.842 112.182C146.421 103.72 148.012 95.2594 149.616 86.8042C151.219 78.3491 152.834 69.9296 154.473 61.4983C155.98 53.7507 157.506 46.0031 159.068 38.2674C160.361 31.8636 161.678 25.4598 163.066 19.0739C164.014 14.7096 164.968 10.3452 166.1 6.02846C166.195 5.6717 166.291 5.31495 166.386 4.96414C166.428 4.80359 166.475 4.63711 166.523 4.47657C166.606 4.17332 166.434 4.7917 166.505 4.53008C166.529 4.44089 166.559 4.3517 166.583 4.26251C166.732 3.75711 166.887 3.25765 167.059 2.75819C167.173 2.4371 167.322 2.13981 167.447 1.82467C167.584 1.47386 167.173 2.15765 167.405 1.89602C167.095 2.24683 166.094 2.78197 165.552 2.56792C166.058 2.76413 166.767 2.75224 167.304 2.83548L170.468 3.31116C172.024 3.549 173.841 3.57873 175.147 4.55386C176.374 5.46954 176.928 6.90846 176.672 8.4009C176.636 8.59711 176.595 8.79333 176.559 8.98955C176.046 11.6593 175.534 14.3231 175.015 16.9928C174.02 22.1598 173.025 27.3209 172.024 32.482C170.677 39.4745 169.324 46.4609 167.971 53.4534C166.41 61.522 164.842 69.5966 163.281 77.6653C161.63 86.174 159.973 94.6767 158.317 103.179C156.66 111.682 155.122 119.549 153.513 127.73C152.101 134.925 150.682 142.125 149.252 149.32C148.156 154.832 147.059 160.35 145.933 165.856C145.289 168.995 144.669 172.141 143.942 175.268C143.871 175.589 143.787 175.904 143.71 176.219C143.626 176.564 143.888 175.851 143.728 176.166C143.608 176.398 143.751 176.095 143.882 175.964C143.316 176.558 143.626 177.415 144.347 177.682C145.2 178.003 146.189 177.658 146.791 177.028L146.785 177.046Z"></path>
<path fill="white" d="M131.945 253.898C129.061 251.716 125.265 252.007 122.792 255.295C120.193 258.708 120.938 262.413 123.656 264.464C126.91 266.931 130.003 265.409 131.445 263.762C131.731 263.435 131.612 263.019 131.32 262.775C131.075 262.567 130.783 262.525 130.497 262.692C129.591 263.227 127.774 263.845 126.045 262.525C124.562 261.372 124.728 259.689 125.301 258.619L126.165 259.029C130.491 261.087 132.512 261.045 133.626 259.523C134.943 257.757 134.246 255.616 131.934 253.886L131.945 253.898ZM131.367 257.269C130.622 258.298 129.305 258.833 126.546 257.638L125.968 257.388C127.577 254.921 129.842 253.892 131.123 254.921C131.945 255.581 131.945 256.443 131.367 257.263V257.269Z"></path>
<path fill="white" d="M114.138 252.583C118.84 253.403 120.777 252.868 121.474 251.102C122.297 249.045 121.021 247.196 118.34 246.125C115.002 244.811 111.415 246.042 109.889 249.865C108.28 253.855 109.972 257.226 113.185 258.505C116.975 259.985 119.49 257.726 120.479 255.752C120.688 255.341 120.479 254.931 120.11 254.806C119.782 254.681 119.531 254.723 119.287 255.014C118.626 255.793 116.981 256.822 114.96 256.001C113.226 255.3 112.94 253.617 113.19 252.422L114.138 252.589V252.583ZM117.851 247.32C118.798 247.731 119.09 248.593 118.715 249.544C118.262 250.698 117.106 251.56 114.138 251.15L113.518 251.066C114.382 248.272 116.319 246.666 117.845 247.326L117.851 247.32Z"></path>
<path fill="white" d="M105.276 252.916L106.635 244.812L109.931 245.347C110.425 245.43 110.795 245.18 110.878 244.603C110.962 244.027 110.795 243.7 110.259 243.616L106.671 242.998C105.807 241.268 105.682 240.203 105.848 239.258C106.057 237.986 106.921 237.284 107.785 237.409C108.566 237.534 108.775 238.069 108.649 238.723C108.566 239.133 108.441 239.585 108.363 239.96C108.155 240.905 108.816 241.648 109.847 241.851C110.92 242.059 111.784 241.44 111.951 240.245C112.237 238.105 110.342 236.666 107.827 236.255C105.598 235.887 103.089 236.339 102.63 239.133C102.463 240.12 102.63 241.274 103.083 242.421L100.979 242.053C100.443 241.969 100.199 242.261 100.074 242.796C99.9485 243.414 100.199 243.741 100.735 243.825L102.755 244.152L101.438 252.256C101.23 253.57 99.8293 253.736 99.7041 254.515C99.6624 254.801 99.8651 255.056 100.199 255.092C102.142 255.276 104.031 255.586 105.968 255.954C106.421 256.038 106.79 255.913 106.832 255.544C106.915 254.682 105.062 254.23 105.264 252.91L105.276 252.916Z"></path>
<path fill="white" d="M94.9302 238.849C95.0136 239.794 95.7526 240.454 96.8253 240.371C97.9398 240.288 98.5596 239.551 98.4761 238.314C98.351 236.173 96.1698 235.228 93.6131 235.353C91.3484 235.478 89.0361 236.465 89.1613 239.301C89.203 240.288 89.6559 241.4 90.3591 242.387L88.2137 242.512C87.6773 242.553 87.433 242.88 87.4688 243.457C87.5105 244.034 87.8382 244.319 88.3746 244.278L90.4366 244.153L90.9313 252.376C91.0147 253.69 89.7334 254.184 89.7334 254.968C89.7334 255.295 89.9837 255.462 90.3115 255.42C92.2483 255.171 94.1852 254.968 96.1221 254.968C96.6167 254.968 96.9445 254.719 96.9028 254.392C96.7776 253.488 94.8825 253.488 94.7991 252.132L94.3461 243.951L97.6418 243.742C98.1781 243.701 98.4642 243.415 98.4225 242.797C98.3808 242.262 98.1364 241.935 97.6001 241.976L93.9289 242.185C92.7311 240.704 92.445 239.634 92.3616 238.688C92.2364 237.452 92.9397 236.506 93.8038 236.465C94.6262 236.423 94.8348 236.916 94.9182 237.576C94.96 237.987 94.8765 238.439 94.9182 238.849H94.9302Z"></path>
<path fill="white" d="M78.5651 244.771C74.894 245.966 72.9154 249.338 74.1967 253.286C75.4721 257.192 79.1432 258.714 82.8143 257.484C86.4854 256.247 88.464 252.875 87.1826 248.969C85.9073 245.062 82.2779 243.582 78.5651 244.771ZM82.6891 256.122C80.6271 256.782 78.8571 253.738 77.9095 250.937C77.0454 248.345 77.2063 246.579 78.6545 246.085C80.7165 245.384 82.5282 248.469 83.4341 251.228C84.2982 253.862 84.1373 255.67 82.6891 256.122Z"></path>
<path fill="white" d="M166.493 253.647C165.009 251.423 162.78 252.125 162.536 251.59C162.452 251.423 162.536 251.221 162.744 251.055L163.608 250.478C164.061 250.193 164.02 249.901 163.567 249.533L160.807 247.065C160.229 246.53 160.027 246.571 159.776 246.738C159.115 247.19 159.818 248.302 158.704 249.081L153.388 252.743C152.273 253.487 151.326 253.029 150.664 253.487C150.414 253.653 150.378 253.98 150.581 254.23C151.612 255.467 152.601 256.739 153.59 258.095C153.757 258.303 154.002 258.344 154.252 258.178C154.913 257.726 154.538 256.739 155.611 255.996L159.937 252.993C160.968 252.291 162.661 252.089 163.483 253.32C163.936 253.98 164.306 254.967 161.63 257.268L158.084 260.313C157.339 260.973 156.517 260.229 155.938 260.598C155.688 260.764 155.688 261.05 155.813 261.258C156.761 262.697 157.583 263.987 158.495 265.509C158.662 265.759 158.948 265.836 159.198 265.676C159.818 265.266 159.693 264.219 160.515 263.482L164.389 260.069C167.852 257.024 167.357 254.967 166.493 253.653V253.647Z"></path>
<path fill="white" d="M160.927 239.729C161.958 238.95 161.999 237.428 161.094 236.482C160.104 235.454 158.453 235.329 157.381 236.114C156.308 236.893 156.225 238.373 157.297 239.444C158.203 240.347 159.896 240.514 160.927 239.729Z"></path>
<path fill="white" d="M157.297 242.938C157.667 242.569 157.625 242.32 157.13 241.993L153.996 240.019C153.292 239.567 153.09 239.692 152.881 239.894C152.303 240.471 153.167 241.416 152.22 242.361L147.559 246.845C146.612 247.79 145.497 246.969 144.919 247.546C144.711 247.754 144.711 248.04 144.961 248.289C146.236 249.562 147.476 250.84 148.793 252.238C149.001 252.446 149.329 252.487 149.538 252.279C150.116 251.702 149.371 250.591 150.319 249.687L157.285 242.944L157.297 242.938Z"></path>
<path fill="white" d="M144.52 245.608C143.942 245.198 143.817 244.907 144.312 244.169L147.405 239.401C149.258 236.564 148.763 234.097 145.796 231.873C143.9 230.434 140.396 230.107 139.407 231.504C139.037 232.04 139.24 232.575 139.615 232.902C139.866 233.11 140.235 233.187 140.563 233.027C141.225 232.7 142.625 232.123 144.067 233.193C145.593 234.347 145.14 235.536 144.437 236.648L143.942 237.427C143.775 237.676 143.698 237.676 143.573 237.593C143.328 237.427 142.75 236.321 141.88 235.661C139.902 234.097 137.142 233.437 135.408 235.702C133.841 237.76 134.419 240.019 136.648 241.749C138.459 243.147 139.902 242.903 140.772 242.57C140.486 243.807 140.98 244.954 142.542 246.191C143.489 246.934 144.312 247.22 144.771 246.601C145.057 246.233 144.854 245.858 144.52 245.614V245.608ZM141.797 240.673C140.891 241.868 139.86 241.91 139.073 241.333C138.126 240.632 137.673 239.442 138.99 237.754C139.937 236.517 141.093 236.767 141.791 237.302C142.655 237.962 142.989 239.109 141.791 240.673H141.797Z"></path>
<path fill="white" d="M135.039 221.962L128.894 233.437C128.274 234.591 126.999 234.181 126.588 234.876C126.421 235.162 126.504 235.412 126.838 235.578C128.406 236.357 130.056 237.183 131.701 238.17C131.987 238.337 132.279 238.295 132.446 238.004C132.857 237.302 131.743 236.482 132.363 235.287L140.068 220.975C140.313 220.523 140.194 220.315 139.615 220.154L136.028 219.209C135.247 219.001 135.08 219.126 134.913 219.417C134.502 220.119 135.694 220.773 135.039 221.968V221.962Z"></path>
<path fill="white" d="M116.242 230.887C116.158 231.137 116.325 231.464 116.611 231.547C118.548 232.124 120.402 232.819 122.38 233.604C122.833 233.771 123.203 233.729 123.369 233.396C123.739 232.617 121.844 231.708 122.338 230.435L124.031 226.035L125.271 226.487C127.952 227.474 130.134 226.237 130.795 224.721C131.29 223.609 130.962 222.789 129.806 222.337C128.858 221.968 128.197 222.17 127.66 222.997C127.041 223.942 126.051 225.548 124.937 225.221L124.4 225.054L125.801 221.391C126.009 220.898 125.843 220.731 125.223 220.648L121.552 220.155C120.771 220.03 120.562 220.238 120.479 220.482C120.229 221.225 121.468 221.754 120.932 223.032L118.375 229.038C117.839 230.275 116.48 230.15 116.23 230.887H116.242Z"></path>
<path fill="white" d="M109.77 230.144C113.81 230.887 115.664 228.128 116.409 226.071C116.575 225.619 116.283 225.292 115.872 225.209C115.544 225.126 115.294 225.209 115.091 225.536C114.555 226.398 113.196 227.76 111.009 227.343C109.197 227.016 108.578 225.411 108.619 224.174H109.567C114.347 224.174 116.206 223.146 116.534 221.296C116.903 219.114 115.294 217.556 112.451 217.021C108.864 216.361 105.61 218.258 104.865 222.325C104.084 226.523 106.39 229.52 109.77 230.138V230.144ZM112.201 218.3C113.232 218.466 113.685 219.287 113.476 220.274C113.226 221.51 112.279 222.533 109.269 222.741L108.649 222.783C108.977 219.863 110.503 218.014 112.195 218.3H112.201Z"></path>
<path fill="white" d="M88.8696 213.168L89.7993 228.235C89.8231 228.77 90.282 229.061 90.7647 229.02C91.0985 228.99 91.3249 228.853 91.5037 228.49C91.7779 227.914 92.1295 226.944 92.642 226.308C93.2737 227.598 94.8173 228.978 96.8733 228.847C99.5075 228.698 102.928 226.659 102.636 221.694C102.35 216.807 99.2333 215.332 96.8078 215.433C95.5324 215.487 94.6921 216.141 94.1379 216.7C93.7028 217.128 93.4704 217.508 93.3035 217.514C93.1784 217.514 93.0949 217.443 93.089 217.276L92.648 209.677C92.6241 209.059 92.0878 209.083 91.8017 209.178L88.2557 210.272C87.6061 210.462 87.4095 210.718 87.4214 211.045C87.4512 211.824 88.7742 211.77 88.8696 213.168ZM95.2106 217.8C97.5527 217.621 98.4347 220.874 98.5837 223.543C98.7387 226.213 97.952 227.153 96.5932 227.248C94.412 227.42 93.4108 224.209 93.2678 221.706C93.1128 218.995 93.977 217.889 95.2106 217.8Z"></path>
<path fill="white" d="M79.2683 230.803C79.5544 230.72 79.7213 230.476 79.6378 230.185C79.4292 229.406 78.0287 229.567 77.6592 228.294L76.3005 223.769C75.8058 222.081 76.1336 220.523 77.5401 220.029C78.3625 219.744 79.5604 219.821 80.794 223.074L82.4865 227.557C82.856 228.586 81.8667 229.121 82.0336 229.697C82.117 229.983 82.2839 230.108 82.6951 230.024C84.4651 229.656 86.1874 229.394 87.9276 229.162C88.2137 229.121 88.3806 228.794 88.2971 228.502C88.0885 227.801 86.9383 227.723 86.4854 226.695L84.0539 220.897C82.4448 217.074 80.3411 216.783 78.6545 217.276C75.8952 218.097 75.7283 220.487 75.1503 220.731C74.9417 220.814 74.8225 220.731 74.6139 220.523C73.5412 219.453 72.1824 219.25 70.6567 219.702C67.9332 220.523 67.814 222.83 67.2359 223.032C67.1108 223.074 66.9081 223.032 66.8247 222.705L66.4552 221.51C66.2883 221.016 66.0857 220.892 65.5494 221.224L62.3729 223.115C61.6697 223.526 61.6697 223.734 61.7531 224.019C61.9617 224.798 63.237 224.471 63.6482 225.749L65.7937 232.659C66.2049 233.931 65.5076 234.591 65.7103 235.334C65.7937 235.62 66.0798 235.744 66.3718 235.62C67.9809 234.918 69.5065 234.157 71.1097 233.521C71.4374 233.39 71.6043 233.194 71.5209 232.902C71.3123 232.123 69.9535 232.284 69.5423 231.012L67.9332 226.243C67.3551 224.513 68.3861 222.58 69.5423 222.253C70.7819 221.884 71.7295 222.295 72.3433 224.31L73.9107 229.454C74.2802 230.726 73.13 231.344 73.3326 232.129C73.416 232.415 73.7021 232.504 73.9941 232.415C75.8892 231.844 77.5222 231.315 79.2683 230.809V230.803Z"></path>
<path fill="white" d="M59.3993 237.713C60.4721 238.373 61.7474 238.373 63.4399 237.261C64.4292 236.601 64.9656 235.947 64.5544 235.287C64.3041 234.918 63.8512 234.96 63.5234 235.162C62.9036 235.572 62.6592 235.572 62.1229 234.912L58.6604 230.429C56.5566 227.712 54.1251 227.343 50.9904 229.359C48.9701 230.673 47.6113 233.8 48.5171 235.281C48.8449 235.816 49.5064 235.816 49.9176 235.531C50.1679 235.364 50.3706 235.037 50.3288 234.669C50.2454 233.967 50.162 232.409 51.6459 231.458C53.255 230.429 54.1609 231.25 55.025 232.278L55.6031 232.98C55.8117 233.23 55.8117 233.349 55.6448 233.432C55.4779 233.515 54.1609 233.759 53.255 234.336C51.1513 235.691 49.5839 238.04 51.1096 240.424C52.5101 242.606 54.8999 242.85 57.2122 241.328C59.149 240.056 59.4411 238.611 59.3993 237.707V237.713ZM54.286 237.755C53.4219 236.44 54.0357 235.412 54.7807 234.96C55.7282 234.383 56.8844 234.466 57.9571 236.113C58.7795 237.35 58.4935 238.337 57.6711 238.866C56.6818 239.526 55.4839 239.568 54.292 237.755H54.286Z"></path>
<path fill="white" d="M50.0425 243.307L45.7159 239.894C42.0865 237.058 40.1079 237.92 38.9994 239.032C37.1043 240.923 38.1353 242.813 37.6824 243.265C37.5572 243.39 37.3546 243.348 37.1877 243.182L31.7466 237.837C31.3771 237.468 31.0851 237.51 30.799 238.003L28.9039 241.172C28.4927 241.874 28.5761 242.076 28.7787 242.284C29.3568 242.861 30.3044 241.957 31.2937 242.903L40.5251 252.036C41.4727 252.981 41.0197 254.218 41.5978 254.789C41.8064 254.997 42.1342 254.997 42.3428 254.747C43.4155 253.433 44.5299 252.113 45.8053 250.84C45.9721 250.674 45.9721 250.388 45.7636 250.18C45.1855 249.604 44.2796 250.18 43.332 249.235L39.5835 245.572C38.7193 244.71 38.183 243.105 39.2557 242.034C39.8338 241.458 40.6979 240.964 43.4632 243.146L47.1343 246.066C47.915 246.684 47.3428 247.63 47.8375 248.123C48.0461 248.331 48.2904 248.331 48.4573 248.165C49.7744 246.851 51.0974 245.697 52.4979 244.585C52.7065 244.419 52.7065 244.092 52.4979 243.884C51.9615 243.348 50.9722 244.008 50.0664 243.307H50.0425Z"></path>
<path fill="white" d="M36.3714 252.329C35.841 251.996 35.4774 251.954 35.2271 252.346C35.0245 252.667 35.0781 252.929 35.3702 253.339C36.4071 254.802 36.6217 256.55 35.686 258.019C33.7372 261.075 30.1436 261.598 25.5845 258.703C21.9253 256.378 21.2578 254.279 22.4736 252.376C23.4569 250.836 25.1614 250.438 27.3247 251.811C28.3378 252.453 29.5298 252.21 30.1257 251.27C30.8587 250.123 30.3343 248.565 28.8802 247.643C26.6215 246.21 23.6536 247.524 21.4188 251.032C18.6356 255.397 19.7203 260.796 24.7621 263.994C29.5298 267.015 34.7444 266.135 37.611 261.634C40.847 256.556 37.7242 253.191 36.3654 252.329H36.3714Z"></path>
<path fill="white" d="M71.5925 254.338C71.2886 254.57 71.2528 254.837 71.3839 255.319C71.8488 257.055 71.4435 258.768 70.0549 259.82C67.1705 262.008 63.6126 261.241 60.3408 256.942C57.7126 253.488 57.8199 251.288 59.6197 249.926C61.0738 248.826 62.814 249.046 64.3695 251.086C65.0965 252.043 66.3004 252.227 67.1884 251.555C68.273 250.735 68.3207 249.088 67.2778 247.72C65.6567 245.591 62.4207 245.788 59.1012 248.303C54.9772 251.424 54.1249 256.865 57.7424 261.622C61.1632 266.117 66.3659 267.11 70.6151 263.887C75.4126 260.254 73.6486 256.009 72.6771 254.724C72.2957 254.225 71.968 254.064 71.5985 254.344L71.5925 254.338Z"></path>
</g>
<defs>
<clipPath id="clip0_4504_356">
<rect fill="white" height="402" width="182"></rect>
</clipPath>
</defs>
</svg>
