<svg xml:space="preserve" style="enable-background:new 0 0 600 600;" viewBox="0 0 600 600" y="0px" x="0px" xmlns:xlink="http://www.w3.org/1999/xlink" xmlns="http://www.w3.org/2000/svg" id="Layer_1" version="1.1">
<style type="text/css">
	.st0{fill:#72A950;}
	.st1{fill:#FFFFFF;}
	.st2{fill:#1C5633;}
	.st3{fill:#87A9E3;}
	.st4{fill:#592C5F;}
	.st5{fill:#006E42;}
	.st6{fill:#FFBE3D;}
	.st7{fill:#C56684;}
	.st8{fill:#98C9E9;}
	.st9{fill:#E5A9BA;}
	.st10{fill:#A2412C;}
	.st11{fill:#8F9892;}
	.st12{fill:#F3E7E1;}
	.st13{fill:#502C1D;}
	.st14{fill:#BBD3E5;}
	.st15{fill:#C68B67;}
	.st16{fill:#9DCEC9;}
	.st17{fill:#006776;}
	.st18{fill:#C70016;}
	.st19{fill:#286C46;}
	.st20{fill:#231F20;}
	.st21{fill:#183964;}
	.st22{fill:#12284B;}
	.st23{fill:#17733B;}
	.st24{fill:#060606;}
	.st25{fill:#A1C9E7;}
	.st26{fill:#070808;}
	.st27{fill:#0C0A0A;}
	.st28{fill:#F2B41A;}
	.st29{fill:#E96076;}
	.st30{fill:#0A0809;}
	.st31{fill:none;}
	.st32{fill:#F1E8DC;}
	.st33{fill:#1D1E1C;}
	.st34{fill:#221F1F;}
	.st35{fill:#0074A6;}
	.st36{fill:#54A5B0;}
	.st37{fill:#E4BFB2;}
	.st38{fill:#EBD38E;}
	.st39{display:none;}
	.st40{display:inline;}
	.st41{display:inline;fill:#ED89A2;}
	.st42{fill:#ED89A2;}
	.st43{fill:#FBB815;}
	.st44{fill:#1D1C1A;}
</style>
<g>
	<path d="M201,507.1c-0.4-0.1-4.7,1.8-8.9,4.7c-0.7-0.3-1.7-0.7-2.3-0.4c-0.1-0.8-0.7-1.8-0.8-2.2
		c-48.1-145.1-61.2-189.5-87.8-266.9c-0.1-0.3-0.2-1-0.4-1.5c2.3-1.4,7.1-5.7,19.5-5.6c12.1,0.2,24.3,4.1,36.4,1.3
		c25-5.8,40.3-33.7,68.5-30.5c1.2,0.1,3.5,1,5.2,0.9c0,0.2,0.1,0.4,0.1,0.6c25.6,142.8,50,271,51.4,278.4c0.1,0.7,0.2,1.4,0.4,2
		c-0.3,0.2-0.6,0.4-1,0.7c-7.2-1.2-15.6-0.7-21.7,1c-1.5,1.4,6-1.3,18.1,1.6c-1.7,1.2-4.1,2.6-7.2,4.3
		c-15.8,8.4-34.3,11.6-52.1,14.7c-7,1.2-16.7,3.5-23.8,2.2c0.5-0.4,1-0.9,1.6-1.3C198.4,509.3,202.1,507.3,201,507.1z" class="st15"></path>
	<path d="M157.1,234c0.1,0.4,2.8-0.8,3.4-0.8c1.5-0.3-25.2-155.9-24.4-171c0-0.4,0.3-0.8,0.7-1.1
		c0.9-0.6,2.9-1.7,5.2-1.9c1.1-0.1,2.2-0.1,3.3,0.2c1.1,0.2,2.1,1.1,2.2,2.3c11.5,84.4,22.3,163.6,23,167.4" class="st14"></path>
	<path d="M246.1,162.2C246.1,162.2,246.1,162.2,246.1,162.2c-0.3-0.4-0.5-0.7-0.7-0.8c-6.7-9.3-9.5-12.3-22.9-10
		c-13.2,2.2-36.6,9.5-84.1,20.9c-24.7,5.9-40.2,9.1-50.2,12.4c-14.6,4.7-17.3,9.4-19,22.6c-0.1,0.8,0,1.7,0.3,2.3
		c-0.3,0.2-0.6,0.6-0.5,1.1c0.2,1,1.1,1.2,2.1,1.1c0,0,0,0,0.1,0c0.2,0,0.3,0,0.5-0.1c0.8-0.1,1.6-0.4,2.1-0.5
		c1.2-0.2,2.7-0.6,4.4-0.9l0,0c1.7,7.6,3,15,8.2,17.5c0,0.8,0.3,1.8,0.4,2.6c1.7,9.7,84.7,262.6,96.4,292.8c0.2,0.5,0.4,1,0.6,1.4
		c0.1,0.3,0.2,0.6,0.4,0.9c0.9,1.5,2.1,2.3,3.3,3.3c0.3,0.3,0.7,0.5,1,0.7c8.2,4.2,24.4,3.3,38.3,0.9c0.6-0.1,1.1-0.2,1.7-0.3
		c6.4-1.2,12.2-2.6,16.5-3.9l0,0c14-4.9,42.8-14.6,48.5-28.5c0.5-1.1,0.6-2.1,0.4-2.8c0-0.5-0.1-1-0.1-1.4
		c-2.9-21.2-44.3-254.4-53.7-296.3c-0.3-1.2-1-4.1-1.8-6.7c2.9-2.7,3.5-7.5,0.9-17.4c-0.1-0.4-0.2-1.1-0.4-1.9l0,0
		c0.6-0.1,1.2-0.2,1.8-0.3c0.2,0,0.4-0.1,0.6-0.1c0.8-0.1,1.7-0.1,2.4-0.4c0,0,0,0,0,0c0.7-0.3,1.4-0.9,1.7-1.9c0,0,0-0.1,0-0.1
		c0.1-1.9,0.8-2.7,1.6-3.2c0.1-0.1,0.1-0.1,0.1-0.2c0,0,0,0,0-0.1C247.4,164,246.7,163,246.1,162.2z M201,507.1
		c-0.4-0.1-4.7,1.8-8.9,4.7c-0.7-0.3-1.7-0.7-2.3-0.4c-0.1-0.8-0.7-1.8-0.8-2.2c-48.1-145.1-61.2-189.5-87.8-266.9
		c-0.1-0.3-0.2-1-0.4-1.5c2.3-1.4,7.1-5.7,19.5-5.6c12.1,0.2,24.3,4.1,36.4,1.3c25-5.8,40.3-33.7,68.5-30.5c1.2,0.1,3.5,1,5.2,0.9
		c0,0.2,0.1,0.4,0.1,0.6c25.6,142.8,50,271,51.4,278.4c0.1,0.7,0.2,1.4,0.4,2c-0.3,0.2-0.6,0.4-1,0.7c-7.2-1.2-15.6-0.7-21.7,1
		c-1.5,1.4,6-1.3,18.1,1.6c-1.7,1.2-4.1,2.6-7.2,4.3c-15.8,8.4-34.3,11.6-52.1,14.7c-7,1.2-16.7,3.5-23.8,2.2c0.5-0.4,1-0.9,1.6-1.3
		C198.4,509.3,202.1,507.3,201,507.1z" class="st14"></path>
	<path d="M157.1,234c0.1,0.4,2.8-0.8,3.4-0.8c1.5-0.3-25.2-155.9-24.4-171c0-0.4,0.3-0.8,0.7-1.1c0.9-0.6,2.9-1.7,5.2-1.9
		c1.1-0.1,2.2-0.1,3.3,0.2c1.1,0.2,2.1,1.1,2.2,2.3c11.5,84.4,22.3,163.6,23,167.4c0.1,0.8,1.5-0.6,2.6-0.7c1.1-0.2,1.1-0.6,0.9-1.4
		c-4-13.8-22.4-169.6-25.3-170c-0.6-0.3-2-0.3-2.4-0.4c-3-0.8-6.2-0.2-8.9,1.2c-0.6,0.3-3.8,2-3.8,3
		C131.4,66.7,153.4,207.3,157.1,234z"></path>
	<path d="M226.4,498c2.2-0.6,8.3-2.6,7.1-2.7c-4.8-0.5-18,5.2-17.1,5.6C217.3,501.4,219.5,500,226.4,498z"></path>
	<path d="M246.1,162.2C246.1,162.2,246.1,162.2,246.1,162.2c-0.3-0.4-0.6-0.7-0.7-0.8c-6.6-9.3-9.5-12.3-22.9-10
		c-13.2,2.2-36.6,9.5-84.1,20.9c-24.7,5.9-40.2,9.1-50.2,12.4c-14.7,4.7-17.3,9.4-19.1,22.6c-0.1,0.9,0,1.7,0.3,2.3
		c-0.3,0.2-0.5,0.6-0.5,1.1c0.2,1,1.1,1.2,2.1,1.1c0,0,0,0,0.1,0c0.2,0,0.3,0,0.5-0.1c0.8-0.1,1.6-0.4,2.1-0.5
		c1.2-0.2,2.7-0.6,4.4-0.9c1.7,7.6,3,15,8.2,17.5c0,0.8,0.3,1.8,0.4,2.6c1.7,9.7,84.7,262.6,96.4,292.8c0.2,0.5,0.4,1,0.6,1.4
		c0.1,0.3,0.2,0.6,0.4,0.9c0.9,1.5,2.1,2.3,3.3,3.3c0.3,0.3,0.7,0.5,1,0.7c8.2,4.2,24.4,3.3,38.4,0.9c0.6-0.1,1.1-0.2,1.7-0.3
		c6.4-1.2,12.2-2.6,16.5-3.9c14-4.9,42.8-14.7,48.5-28.5c0.5-1.1,0.6-2.1,0.4-2.8c0-0.5-0.1-1-0.1-1.4
		c-2.9-21.2-44.3-254.4-53.7-296.3c-0.3-1.2-1-4.1-1.8-6.7c2.9-2.7,3.5-7.5,0.9-17.4c-0.1-0.4-0.2-1.1-0.4-1.9c0,0,0,0,0,0
		c0.6-0.1,1.2-0.2,1.8-0.3c0.1,0,0.2,0,0.3,0c0.1,0,0.3,0,0.4-0.1c0.7-0.1,1.7-0.2,2.4-0.4c0,0,0,0,0,0c1-0.3,1.7-0.9,1.7-1.9
		c0,0,0-0.1,0-0.1c-0.5-2.9-5.9-0.9-7.6-0.6c-35.7,6.9-139.4,35.6-164.2,41c0.5-1.6,0.4-3.7,0.6-4.9c2.6-17.2,13.2-16,73.6-30.6
		c88.9-21.6,83.9-26.8,97.3-9.8c0.4,0.5,1.2,2.2,2,1.6c0.1-0.1,0.1-0.2,0.2-0.2c0,0,0,0,0-0.1C247.5,164,246.8,162.9,246.1,162.2z
		 M285.6,501c-26.4,21.3-73.9,27.1-84.4,26.3c-16.1,0.5-16.5-5.6-8.4-13.3c0.2,0.1,0.3,0.1,0.4,0.1c8.6,2.5,21.4-0.7,33.8-3
		c18.5-3.3,38.1-7.8,53.4-18.6c0.1-0.1,0.4-0.2,0.6-0.4c1.2,0.4,2.4,0.8,3.6,1.3C290.9,495.9,291.3,496.3,285.6,501z M189,509.2
		c-48.1-145.1-61.2-189.5-87.8-266.9c-0.1-0.3-0.2-1-0.4-1.5c2.3-1.4,7.1-5.7,19.5-5.6c12.1,0.2,24.3,4.1,36.4,1.3
		c25-5.8,40.3-33.7,68.5-30.5c1.2,0.1,3.5,1,5.2,0.9c0,0.2,0.1,0.4,0.1,0.6c25.6,142.8,50,271,51.4,278.4c0.1,0.7,0.2,1.4,0.4,2
		c-0.3,0.2-0.6,0.4-1,0.7c-7.2-1.2-15.6-0.7-21.7,1c-1.5,1.4,6-1.3,18.1,1.6c-1.7,1.2-4.1,2.6-7.2,4.3
		c-15.8,8.4-34.3,11.6-52.1,14.7c-7,1.2-16.7,3.5-23.8,2.2c0.5-0.4,1-0.9,1.6-1.3c2.3-1.8,6-3.8,5-4c-0.4-0.1-4.7,1.8-8.9,4.7
		c-0.7-0.3-1.7-0.7-2.3-0.4C189.7,510.6,189.1,509.6,189,509.2z M86.3,213.8c5.8-3,12.1-4.9,18.4-6.7c24.5-7.2,49-14.4,73.5-21.5
		c6.6-1.9,13.2-3.7,19.8-5.6c14.8-3.6,28-6.6,37.4-8.4c2.5,11.7,2.7,14.6-1.1,16.1c0,0,0,0,0,0c-1.2,0.5-2.9,0.9-5,1.4
		c-39.9,9.3-75.4,19-97.8,25.3c-3.9,1.1-14.7,3.9-13,4.7c1,0.8,5-0.2,5.6-0.3l0,0.1c35.9-7.9,68.9-16,107.3-25.4
		c1.2-0.3,2.4-0.6,3.4-1c0.7,0.2,1.3,0.6,1.8,1.1c0.7,3.7,2.6,11,3.2,14.6C291,490.9,286.6,473.1,289.7,491c-1-0.4-2.1-0.7-3.1-1.1
		c-0.8-0.3-1.6-0.5-2.5-0.7c0-0.1,0-0.2,0-0.3c1.2-0.5,0.6-1.8-1.2-11.8c-6.6-34.9-45.3-241.6-49.7-269.7c-0.1-0.9-0.1-2.4-0.9-3
		c-0.6-1.5-3.1-1.5-4.5-1.6c-29.6-3.3-44.2,23.2-68.5,30.2c-18.8,5.4-41.4-7.5-57.8,4.8c-0.6,0.5-3.3,1.9-2.4,3.1
		c0.1,0.7,0.6,1.5,0.7,1.9c32,92.7,87,270.2,89.7,269.5c0,0,0.1,0,0.1-0.1c0.1,0.3,0.4,0.6,0.8,0.8c-1.8,1.4-3.5,2.9-4.8,4.5
		c-5.7-17.3-27.6-75.2-91.3-277.2c-1.2-3.7-2.1-7.6-3.7-11.2c-0.1-0.2-0.1-0.3-0.2-0.5c2.1,0.1,4.6-0.4,7.6-1.4
		c1.8-0.7,2.9-0.8,2.4-2.3c-0.7-1.6-2.1-2.1-5.2-1.4c-3.3,0.8-5.9,2.1-8,0.1c-1.7-1.7-3-4.8-4-8.1C84.1,215.4,85.5,214.2,86.3,213.8
		z"></path>
	<g>
		<g>
			<path d="M216.2,305.4c-2.4-1-5.1-0.2-6.2,2.6c-1.2,2.9-0.1,5.4,2.2,6.3c2.7,1.2,4.7-0.4,5.4-1.9
				c0.1-0.3,0-0.6-0.3-0.7c-0.2-0.1-0.4-0.1-0.6,0.1c-0.5,0.5-1.7,1.3-3.2,0.7c-1.3-0.6-1.4-1.8-1.2-2.6l0.7,0.1
				c3.4,0.7,4.8,0.3,5.4-1C219,307.6,218.2,306.2,216.2,305.4z M216.4,307.9c-0.3,0.9-1.2,1.5-3.3,1.1l-0.5-0.1
				c0.7-2,2.1-3.2,3.2-2.7C216.5,306.6,216.7,307.2,216.4,307.9z" class="st1"></path>
		</g>
		<g>
			<path d="M203.4,307.6c3.5-0.2,4.7-1,4.9-2.3c0.2-1.6-1-2.7-3.1-3c-2.6-0.3-4.9,1.2-5.3,4.1c-0.4,3.1,1.4,5.2,3.9,5.5
				c2.9,0.4,4.3-1.7,4.7-3.2c0.1-0.3-0.1-0.6-0.4-0.6c-0.3,0-0.4,0-0.5,0.3c-0.3,0.7-1.3,1.7-2.9,1.5c-1.3-0.2-1.8-1.3-1.9-2.2
				L203.4,307.6z M205.1,303.2c0.7,0.1,1.1,0.7,1,1.4c-0.1,0.9-0.8,1.7-3,1.9l-0.5,0.1C202.8,304.5,203.9,303,205.1,303.2z" class="st1"></path>
		</g>
		<g>
			<path d="M197.2,309.4l-0.5-6l2.4-0.2c0.4,0,0.6-0.3,0.5-0.7c0-0.4-0.2-0.6-0.6-0.6l-2.6,0.2
				c-0.9-1.1-1.2-1.8-1.2-2.5c-0.1-0.9,0.4-1.6,1-1.7c0.6-0.1,0.8,0.3,0.8,0.8c0,0.3,0,0.6,0,0.9c0,0.7,0.6,1.1,1.4,1.1
				c0.8,0,1.3-0.6,1.2-1.5c-0.2-1.6-1.8-2.3-3.6-2.1c-1.6,0.1-3.3,0.9-3.2,3c0.1,0.7,0.4,1.5,0.9,2.3l-1.6,0.1
				c-0.4,0-0.5,0.3-0.5,0.7c0,0.5,0.3,0.6,0.6,0.6l1.5-0.1l0.5,6c0.1,1-0.9,1.3-0.8,1.9c0,0.2,0.2,0.4,0.5,0.3
				c1.4-0.2,2.8-0.3,4.2-0.4c0.3,0,0.6-0.2,0.5-0.4C198.7,310.3,197.3,310.3,197.2,309.4z" class="st1"></path>
		</g>
		<g>
			<path d="M187.4,301.2c0.2,0.7,0.9,1,1.6,0.7c0.8-0.3,1.1-0.9,0.8-1.7c-0.5-1.5-2.2-1.8-4-1.2c-1.6,0.5-3,1.6-2.4,3.6
				c0.2,0.7,0.7,1.4,1.4,2l-1.5,0.5c-0.4,0.1-0.5,0.4-0.4,0.8c0.1,0.4,0.4,0.5,0.8,0.4l1.4-0.5l1.8,5.7c0.3,0.9-0.5,1.5-0.4,2
				c0.1,0.2,0.3,0.3,0.5,0.2c1.3-0.5,2.7-1,4-1.3c0.3-0.1,0.5-0.3,0.5-0.5c-0.2-0.6-1.6-0.3-1.9-1.2l-1.8-5.7l2.3-0.7
				c0.4-0.1,0.5-0.4,0.4-0.8c-0.1-0.4-0.4-0.6-0.7-0.4l-2.6,0.8c-1.1-0.8-1.5-1.5-1.7-2.2c-0.3-0.9,0-1.6,0.6-1.8
				c0.6-0.2,0.8,0.1,1,0.6C187.3,300.6,187.3,301,187.4,301.2z" class="st1"></path>
		</g>
		<g>
			<path d="M176.9,308.3c-2.4,1.5-3.2,4.2-1.6,6.8c1.6,2.5,4.5,3,6.8,1.5c2.4-1.5,3.2-4.3,1.6-6.8
				C182.1,307.2,179.3,306.8,176.9,308.3z M181.8,315.6c-1.3,0.8-3.1-1-4.3-2.8c-1.1-1.7-1.3-3-0.3-3.6c1.3-0.9,3.2,1,4.3,2.8
				C182.5,313.7,182.7,315.1,181.8,315.6z" class="st1"></path>
		</g>
		<g>
			<path d="M240.6,299.1c-1.4-1.3-2.9-0.4-3.2-0.8c-0.1-0.1-0.1-0.3,0.1-0.4l0.5-0.6c0.3-0.3,0.2-0.5-0.2-0.7l-2.4-1.3
				c-0.5-0.3-0.6-0.2-0.8-0.1c-0.4,0.4,0.3,1.1-0.3,1.8l-3.1,3.5c-0.7,0.7-1.4,0.6-1.8,1c-0.1,0.2-0.1,0.4,0.1,0.5
				c0.9,0.7,1.9,1.4,2.8,2.2c0.2,0.1,0.3,0.1,0.5-0.1c0.4-0.4-0.1-1.1,0.6-1.8l2.5-2.9c0.6-0.7,1.8-1.1,2.6-0.4
				c0.4,0.4,0.9,1-0.6,3.1l-2,2.8c-0.4,0.6-1.1,0.2-1.5,0.6c-0.1,0.2-0.1,0.4,0,0.5c0.9,0.9,1.7,1.6,2.6,2.5c0.2,0.1,0.4,0.2,0.5,0
				c0.4-0.4,0.1-1.1,0.5-1.8l2.1-3.1C242.1,301.2,241.4,299.9,240.6,299.1z" class="st1"></path>
		</g>
		<g>
			<path d="M234.2,290.2c0.6-0.7,0.4-1.8-0.5-2.3c-0.9-0.6-2.1-0.4-2.7,0.4c-0.6,0.7-0.4,1.8,0.5,2.4
				C232.4,291.1,233.6,291,234.2,290.2z" class="st1"></path>
		</g>
		<g>
			<path d="M232.2,293.1c0.2-0.3,0.1-0.5-0.3-0.6l-2.6-0.8c-0.6-0.2-0.7-0.1-0.8,0.1c-0.3,0.5,0.5,1,0,1.9l-2.5,4
				c-0.5,0.8-1.4,0.5-1.7,1c-0.1,0.2-0.1,0.4,0.2,0.5c1.1,0.7,2.2,1.4,3.4,2.1c0.2,0.1,0.4,0.1,0.5-0.1c0.3-0.5-0.4-1.2,0.1-2
				L232.2,293.1z" class="st1"></path>
		</g>
		<g>
			<path d="M223.6,297.3c-0.5-0.2-0.6-0.4-0.4-1l1.3-3.9c0.8-2.3,0-4-2.5-5c-1.6-0.7-4.1-0.3-4.6,0.9
				c-0.2,0.4,0.1,0.8,0.4,1c0.2,0.1,0.5,0.1,0.7-0.1c0.4-0.3,1.3-1,2.5-0.5c1.3,0.5,1.2,1.5,0.9,2.4l-0.2,0.6
				c-0.1,0.2-0.1,0.2-0.2,0.2c-0.2-0.1-0.8-0.8-1.5-1.1c-1.7-0.8-3.7-0.7-4.6,1.2c-0.7,1.7,0.1,3.2,1.9,4.1c1.5,0.7,2.5,0.2,3.1-0.1
				c0,0.9,0.6,1.7,1.9,2.3c0.8,0.4,1.4,0.4,1.6-0.1C224.1,297.6,223.9,297.4,223.6,297.3z M220.8,294.3c-0.4,1-1.2,1.2-1.8,0.9
				c-0.8-0.3-1.3-1.1-0.7-2.5c0.5-1,1.3-1.1,1.9-0.8C221,292.2,221.4,292.9,220.8,294.3z" class="st1"></path>
		</g>
		<g>
			<path d="M212.8,282.2l-2.3,9.2c-0.2,0.9-1.2,0.9-1.4,1.4c-0.1,0.2,0,0.4,0.3,0.5c1.2,0.3,2.6,0.6,3.9,1
				c0.2,0.1,0.4,0,0.5-0.2c0.2-0.6-0.8-1-0.5-1.9l2.9-11.5c0.1-0.4,0-0.5-0.5-0.5l-2.7,0c-0.6,0-0.7,0.1-0.8,0.3
				C212.1,281,213,281.2,212.8,282.2z" class="st1"></path>
		</g>
		<g>
			<path d="M201.1,291.8c0,0.2,0.2,0.4,0.4,0.4c1.5,0.1,2.9,0.2,4.4,0.4c0.3,0,0.6-0.1,0.7-0.3c0.1-0.6-1.4-0.9-1.3-1.9
				l0.4-3.4l1,0.1c2.1,0.2,3.4-1,3.6-2.2c0.2-0.9-0.2-1.4-1.1-1.5c-0.7-0.1-1.2,0.2-1.4,0.8c-0.3,0.8-0.7,2.1-1.5,2.1l-0.4,0
				l0.3-2.8c0.1-0.4-0.1-0.5-0.5-0.4l-2.7,0.3c-0.6,0.1-0.7,0.2-0.7,0.4c0,0.6,0.9,0.7,0.8,1.7l-0.7,4.7
				C202.1,291.1,201.1,291.3,201.1,291.8z" class="st1"></path>
		</g>
		<g>
			<path d="M196.3,292.5c3-0.2,3.8-2.5,4-4.1c0-0.3-0.2-0.5-0.5-0.5c-0.2,0-0.4,0.1-0.5,0.4c-0.2,0.7-0.9,1.9-2.6,2
				c-1.3,0.1-2.1-0.9-2.2-1.8l0.7-0.2c3.4-0.8,4.5-1.9,4.4-3.3c-0.1-1.6-1.5-2.4-3.6-2.3c-2.7,0.2-4.6,2.1-4.4,5.1
				C191.7,290.9,193.8,292.6,196.3,292.5z M196,283.6c0.8-0.1,1.2,0.4,1.3,1.2c0,0.9-0.4,1.8-2.5,2.5l-0.4,0.1
				C194,285.3,194.7,283.7,196,283.6z" class="st1"></path>
		</g>
		<g>
			<path d="M178.6,284.1l3.3,10.5c0.1,0.4,0.5,0.5,0.8,0.4c0.2-0.1,0.4-0.2,0.4-0.5c0.1-0.5,0.2-1.2,0.4-1.7
				c0.7,0.8,2,1.5,3.4,1.1c1.8-0.6,3.9-2.6,2.8-6.1c-1.1-3.4-3.5-3.9-5.2-3.4c-0.9,0.3-1.4,0.9-1.7,1.4c-0.2,0.4-0.3,0.7-0.4,0.7
				c-0.1,0-0.2,0-0.2-0.1l-1.7-5.3c-0.1-0.4-0.5-0.3-0.7-0.2l-2.3,1.4c-0.4,0.3-0.5,0.5-0.5,0.7
				C177.3,283.4,178.3,283.1,178.6,284.1z M183.9,286.3c1.6-0.5,2.8,1.6,3.4,3.5c0.6,1.9,0.2,2.7-0.8,3c-1.5,0.5-2.8-1.6-3.3-3.3
				C182.6,287.5,183,286.6,183.9,286.3z" class="st1"></path>
		</g>
		<g>
			<path d="M174.9,298.3c0.2-0.1,0.3-0.3,0.2-0.5c-0.3-0.5-1.2-0.2-1.7-1l-1.8-3c-0.6-1.1-0.7-2.3,0.2-2.9
				c0.5-0.3,1.4-0.5,2.8,1.6l2,2.9c0.4,0.7-0.2,1.2,0.1,1.6c0.1,0.2,0.2,0.2,0.5,0.1c1.2-0.6,2.4-1.1,3.5-1.5
				c0.2-0.1,0.3-0.3,0.1-0.5c-0.3-0.5-1.1-0.3-1.6-1l-2.7-3.7c-1.8-2.4-3.3-2.3-4.5-1.6c-1.8,1.1-1.5,2.8-1.9,3.1
				c-0.1,0.1-0.2,0.1-0.4-0.1c-0.9-0.6-1.9-0.5-2.9,0.1c-1.8,1.1-1.5,2.7-1.8,3c-0.1,0.1-0.2,0.1-0.3-0.2l-0.5-0.8
				c-0.2-0.3-0.4-0.4-0.7,0l-1.9,1.9c-0.4,0.4-0.4,0.6-0.3,0.7c0.3,0.5,1.1,0.1,1.6,0.9l2.7,4.5c0.5,0.8,0.1,1.4,0.4,1.9
				c0.1,0.2,0.3,0.2,0.5,0.1c1-0.8,2-1.6,3-2.3c0.2-0.1,0.3-0.3,0.2-0.5c-0.3-0.5-1.2-0.2-1.7-1l-2-3.1c-0.7-1.1-0.3-2.7,0.4-3.1
				c0.8-0.5,1.6-0.4,2.3,1l2,3.4c0.5,0.8-0.2,1.5,0.1,2c0.1,0.2,0.3,0.2,0.5,0.1C172.7,299.6,173.8,299,174.9,298.3z" class="st1"></path>
		</g>
		<g>
			<path d="M162.1,306.7c0.9,0.3,1.8,0.1,2.8-1c0.6-0.6,0.8-1.2,0.4-1.6c-0.2-0.2-0.6-0.1-0.8,0.1
				c-0.4,0.4-0.5,0.4-1,0.1l-3.2-2.6c-2-1.6-3.7-1.4-5.6,0.6c-1.2,1.3-1.6,3.7-0.7,4.6c0.3,0.3,0.8,0.2,1-0.1
				c0.1-0.2,0.2-0.4,0.1-0.7c-0.2-0.5-0.5-1.6,0.4-2.5c1-1,1.7-0.6,2.5,0l0.5,0.4c0.2,0.1,0.2,0.2,0.1,0.3c-0.1,0.1-1,0.5-1.5,1.1
				c-1.2,1.3-1.9,3.3-0.4,4.7c1.4,1.3,3.1,1.1,4.5-0.4C162.3,308.4,162.3,307.3,162.1,306.7z M158.5,307.6c-0.8-0.8-0.6-1.6-0.1-2.1
				c0.6-0.6,1.4-0.7,2.4,0.3c0.8,0.7,0.8,1.5,0.3,2C160.5,308.5,159.6,308.7,158.5,307.6z" class="st1"></path>
		</g>
		<g>
			<path d="M156.5,312.3l-3.7-1.7c-3.1-1.4-4.3-0.4-4.9,0.6c-1,1.7,0.1,2.8-0.2,3.2c-0.1,0.1-0.2,0.1-0.4,0l-4.8-2.8
				c-0.3-0.2-0.5-0.1-0.6,0.3l-0.8,2.6c-0.2,0.6-0.1,0.7,0.1,0.8c0.5,0.3,1-0.5,1.9,0l8.1,4.8c0.8,0.5,0.7,1.5,1.2,1.8
				c0.2,0.1,0.4,0.1,0.5-0.2c0.5-1.1,1.1-2.2,1.8-3.4c0.1-0.1,0-0.3-0.1-0.5c-0.5-0.3-1,0.3-1.9-0.2l-3.3-1.9
				c-0.8-0.5-1.4-1.5-0.9-2.4c0.3-0.5,0.8-1,3.2,0l3.1,1.4c0.7,0.3,0.4,1.1,0.9,1.3c0.2,0.1,0.4,0.1,0.4-0.1
				c0.7-1.2,1.4-2.2,2.2-3.2c0.1-0.2,0.1-0.4-0.1-0.5C157.8,312,157.2,312.6,156.5,312.3z" class="st1"></path>
		</g>
		<g>
			<path d="M148.4,321.1c-0.4-0.1-0.7-0.1-0.8,0.2c-0.1,0.3,0,0.4,0.3,0.7c1,0.9,1.5,2.1,1,3.3c-0.8,2.5-3.3,3.5-7,2.3
				c-3-1-3.8-2.4-3.3-3.9c0.4-1.3,1.6-1.8,3.3-1.3c0.8,0.3,1.6-0.1,1.9-0.9c0.3-0.9-0.3-2-1.5-2.4c-1.8-0.6-3.7,0.8-4.7,3.7
				c-1.2,3.6,0.5,7.2,4.7,8.6c3.9,1.3,7.4-0.2,8.7-3.9C152.3,323.3,149.5,321.5,148.4,321.1z" class="st1"></path>
		</g>
		<g>
			<path d="M173.6,316.3c-0.2,0.2-0.2,0.4,0,0.7c0.6,1.1,0.7,2.4-0.1,3.4c-1.7,2.1-4.3,2.1-7.4-0.3
				c-2.5-2-2.8-3.6-1.8-4.8c0.8-1,2.1-1.2,3.6,0c0.7,0.5,1.6,0.5,2.1-0.2c0.6-0.8,0.4-1.9-0.6-2.7c-1.5-1.2-3.8-0.5-5.7,1.9
				c-2.4,2.9-2,6.9,1.4,9.7c3.2,2.6,7.1,2.4,9.5-0.7c2.7-3.4,0.8-6.1-0.2-6.9C174.1,316.1,173.9,316.1,173.6,316.3z" class="st1"></path>
		</g>
	</g>
</g>
<g>
	<path d="M469.7,561.3c-1.4,1-3.1,1.4-4.7,1.6c-9.7,1.4-21.5-1.2-31-3.2c-26.9-5.7-53.5-12.8-79.4-21.9
		c-7.7-2.7-18-7.4-24.5-12.4c-1.2-0.9-2.4-1.8-3.1-3.1c-0.7-1.1,0.3-9.9,0.6-11.2c0-0.1,0.8,0.1,2.2,0.5c2.3,4.9,7.5,8,16.1,11.5
		c4,1.6,8.4,3.8,12.5,5.4c6.8,2.6,14.3,5.1,21.6,7.4c0.3,0,0.6,0.2,0.9,0.2c6.4,2.1,19.6,5.8,36.9,10c7.7,1.9,15.4,3.3,22.1,4.6
		c4.3,0.8,7.4,1.1,11.7,1.8c6.1,1,11,1.7,14.9,1.4c3.8,1.2,6,1.9,6.1,1.9c0.3,0.1,0.3,0.5,0.3,0.8
		C472.6,557.6,470.5,560.8,469.7,561.3z" class="st11"></path>
	<path d="M510.3,439.1c-0.3,1.1-0.6,2.2-0.9,3.3c0,0,0,0,0,0c-0.1,0.3-0.2,0.6-0.3,0.8c0,0,0,0.1,0,0.1
		c-0.7,1.9-1.7,3.6-3.9,4.7c-0.4,0.2-0.5,0.3-1.6,0.5c-4.4,0.7-10.5,0.1-13.7-0.2c-23.7-2-35.2-4.1-53.5-9.2
		c-15.2-4.3-36.5-11.8-41.1-13.6c-7.3-2.8-14.5-5.6-21.6-8.8c-5.6-2.5-17.5-7.6-18.2-13.3c-0.4-2.9,1.6-7.3,2.3-10.1
		c1.7-6.3,4.2-18.7,9.9-22.5c0.3-0.2,1-0.4,1.6-0.7c0.6-0.3,1.1-0.6,1.1-1.2c0,0,0-0.1,0-0.1c0-0.2-0.1-0.3-0.3-0.4
		c0.1-0.4,0.2-0.8,0.2-1.2c0.4-2,1.2-3.3,2.3-4.1c2.8,2.7,13.8,7.3,15.6,8.1c26.9,11,43.7,17.3,97.4,28.4c6.2,1.3,23.8,5.2,29.7,3
		c0,1.3-0.4,3-0.7,5.8c0,0,0,0.1,0,0.1c0,0,0,0.1,0,0.1c-0.1,0-0.1,0.1-0.1,0.1c-0.3,0.5-0.2,0.8,0.2,1.2c0.6,0.8,1.9,1.9,1.8,4.7
		C516.2,420.2,514.6,423.6,510.3,439.1z" class="st11"></path>
	<path d="M514.4,400.6c-0.5,0.3-1.1,0.6-1.4,0.7c-5,1.4-15.5-1-21.1-2.2c-50.2-10.4-69.7-15.4-103.4-29.4
		c-2.6-1.1-5.3-2.3-7.9-3.6c-5-2.4-6.3-3.2-7.3-3.8c1.2-0.4,2.6-0.5,4.2-0.5c12.4,0.3,91.1,19.2,130.6,35.6
		C511.5,398.8,513.3,399.7,514.4,400.6z" class="st2"></path>
	<path d="M485.7,523.5c-5.4,23-9.9,29.9-19.5,30.8c-4,0.4-8.8-0.3-14.9-1.3c-4.3-0.7-7.4-0.9-11.7-1.8
		c-6.7-1.3-14.4-2.7-22.1-4.6c-17.2-4.2-30.5-7.9-36.9-10c-0.3-0.1-0.6-0.2-0.9-0.2c-7.4-2.3-14.9-4.9-21.6-7.5
		c-4-1.5-8.5-3.8-12.5-5.4c-8.6-3.5-13.8-6.6-16.1-11.5c-3-6.6-1-16.4,5-34.7c2.8-8.5,4.1-14.3,6.4-22.9
		c3.2-11.9,9.7-34.7,13.4-49.3c0.3,0.6,0.7,1.2,1.2,1.8c4,4.5,13.1,8.4,22.9,12.8c5,2.3,9.9,4.2,15,6.2c6.6,2.6,32.7,11.7,50.4,16.2
		c22.7,5.8,51.3,7.8,58.2,7.2c0.7-0.1,3.6-0.5,4-0.7c0.6-0.2,1.1-0.5,1.6-0.8c-4.4,14.4-10.9,37.6-14.5,49.7
		C490.6,506.1,487.8,514.7,485.7,523.5z" class="st2"></path>
	<path d="M514.6,410.1c0.6,0,0.8,0,0.9-0.9c0-0.8-0.4-0.5-0.9-0.6c-22.2-1.8-44.5-4.8-74.5-13c-29.2-8-49.1-15.8-70-26.9
		c-0.5-0.2-0.6-0.6-1,0.1c-0.3,0.7,0,1.2,0.4,1.5C407.3,392.8,477.9,410,514.6,410.1z"></path>
	<path d="M513.5,434.3c3.8-13,6.3-19.9,3.8-23.8c-0.4-0.6-2-2.6-2.9-1.6c-0.9,1.3,2.1,1.7,2,5.8c-0.1,5.4-1.6,8.7-5.9,23.9
		c-1,3.5-1.4,7-5,8.7c-0.4,0.2-0.5,0.3-1.6,0.5c-4.4,0.7-10.5,0-13.7-0.3c-23.7-2.1-35.2-4.2-53.5-9.3
		c-15.2-4.3-36.5-11.8-41.1-13.5c-7.3-2.8-14.5-5.6-21.7-8.7c-5.6-2.4-17.5-7.5-18.2-13.2c-0.4-2.9,1.5-7.2,2.3-9.9
		c1.7-6.2,4.1-18.3,9.8-22.1c0.6-0.4,2.7-0.7,2.6-1.8c-0.1-0.6-0.6-0.7-1-0.7c-8.5,0.2-11.7,19.1-14.1,27.2
		c-1.2,4.1-2.9,8.2,0.4,11.8c4,4.5,13.1,8.4,22.9,12.8c5,2.2,9.9,4.1,15,6.1c6.6,2.6,32.7,11.7,50.4,16.2
		c22.7,5.8,51.2,7.8,58.2,7.2c0.7-0.1,3.6-0.5,4-0.7C511.2,447.1,511.7,440.6,513.5,434.3z"></path>
	<path d="M510.7,441.2c-0.9-0.3-1.2,0.8-1.4,1.5c-4.2,13.1-12,41-16.1,54.8c-2.6,8.6-5.3,17.2-7.4,26c-7.6,32.1-13.3,32.7-34.3,29.2
		c-4.3-0.7-7.4-1-11.7-1.8c-6.7-1.3-14.4-2.7-22.1-4.6c-17.2-4.2-30.5-7.9-36.9-10c-0.3-0.1-0.6-0.2-0.9-0.2
		c-7.4-2.3-14.9-4.9-21.6-7.5c-4-1.5-8.5-3.7-12.5-5.4c-20-8.1-21.6-14.1-11.1-45.9c2.8-8.4,4-14.2,6.3-22.7
		c3.6-13.7,11.7-41.9,14.9-55.1c0.2-0.7,0.5-1.7-0.4-2c-1.2-0.2-1.3,1.4-1.5,2.2c-7.7,28.9-5.9,21.5-11.2,40.4
		c-7.9,28.5-6.8,24.8-8.6,31.1c-3.8,13-11.1,30.2-8,39.7c3.1,9.5,14.7,13.3,21.8,16.4c13,5.8,34.5,12.7,51,17.2
		c16.6,4.6,37.4,9,50.4,10.7c7.8,1,19,4.4,26.7-2.1c7.6-6.5,10.4-24.9,14-38c1.7-6,1.1-2.7,9.2-30.9c5.6-19.6,3.2-12,11.6-40.3
		C511,443.1,511.8,441.6,510.7,441.2z"></path>
	<path d="M330,525.5c6.6,5,16.8,9.7,24.5,12.4c25.9,9.1,52.5,16.2,79.4,21.9c9.5,2,21.3,4.6,31,3.2c1.7-0.2,3.3-0.7,4.7-1.6
		c0.7-0.5,1.4-1.1,1.9-1.8c0.6-0.8,0.9-1.8,1.1-2.8c0-0.3,0-0.7-0.3-0.8c-0.2-0.1-0.5,0.1-0.6,0.3c-0.7,0.8-1.3,1.7-2.1,2.4
		c-0.3,0.3-0.8,0.6-1.2,0.8c-2.3,1.1-5.1,1.3-7.6,1.4c-3.1,0.1-6.3,0-9.4-0.3c-2.6-0.2-5.3-0.6-7.9-1c-16.9-3-58.1-13.4-75.8-19.4
		c-12.9-4.4-35-13-39.4-18.2c-0.6-0.7-1-1.6-1-2.5c0-0.9,0.1-1.5,0.3-2.4c0-0.3,0.1-0.6,0-0.9c0-0.1,0-0.1-0.1-0.1
		c-0.1,0-0.2,0.1-0.2,0.1c-0.5,0.8-0.9,1.7-1.1,2.5c-0.3,1.3-0.2,2.6,0.5,3.7C327.7,523.6,328.9,524.6,330,525.5z"></path>
	<path d="M368.6,365.7c-0.2,0.9-1,3.3,0.4,3.5c1.1,0.1,1-1.1,1.2-1.8c0.8-4.4,3.8-5.4,8.1-5.2c12.3,0.4,90.3,19.3,129.6,35.4
		c9.1,3.7,7.4,3.5,6.5,11.1c0,0.4-0.2,0.9,0.5,1.1c0.4,0,0.5-0.4,0.5-0.7c2-8.3,2.7-10-13.6-15.8c-38.3-13.7-117.2-34.4-128.1-32.5
		C371.1,361.1,369.2,362.9,368.6,365.7z"></path>
	<path d="M388.2,371.4c26.9,10.9,43.7,17.2,97.4,28.4c6.3,1.3,24.5,5.4,30,3c0.7-0.3,0.8-1.2,0.3-2.1c-0.7-0.9-2.2,0.3-3,0.5
		c-4.9,1.3-15.4-1.2-20.8-2.3c-49.8-10.5-69.1-15.4-102.6-29.2c-2.6-1.1-5.3-2.3-7.9-3.5c-6.4-3-6.8-3.5-8.1-4.2
		c0.1-0.1,0.2-0.3,0.1-0.4c-0.2-0.9-1.6,0-1.6,0.7C371.9,364.7,386.1,370.5,388.2,371.4z"></path>
	<g>
		<g>
			<path d="M441.2,486.7c-1.5-1.9-4-2.4-6.1-0.8c-2.3,1.7-2.5,4.3-1.1,6.1c1.6,2.2,3.9,1.8,5.1,1
				c0.2-0.2,0.2-0.4,0.1-0.7c-0.1-0.2-0.3-0.3-0.5-0.2c-0.7,0.2-2,0.2-2.8-0.9c-0.7-1-0.3-2.1,0.2-2.7l0.5,0.4
				c2.4,2.1,3.7,2.5,4.7,1.7C442.5,489.7,442.4,488.2,441.2,486.7z M440.3,488.8c-0.7,0.5-1.6,0.6-3.2-0.6l-0.3-0.3
				c1.5-1.3,3.1-1.6,3.8-0.7C440.9,487.8,440.8,488.3,440.3,488.8z" class="st1"></path>
		</g>
		<g>
			<path d="M430,482.6c2.9,1.4,4.2,1.4,5,0.4c0.9-1.2,0.4-2.6-1.1-3.8c-1.9-1.5-4.4-1.3-6.1,0.9
				c-1.8,2.3-1.3,4.8,0.6,6.2c2.2,1.6,4.2,0.6,5.2-0.5c0.2-0.2,0.1-0.5-0.1-0.7c-0.2-0.1-0.4-0.2-0.6,0c-0.6,0.4-1.8,0.7-3-0.1
				c-1-0.8-0.9-1.9-0.5-2.6L430,482.6z M433.4,479.9c0.5,0.4,0.6,1,0.2,1.6c-0.5,0.7-1.4,1-3.2,0.2l-0.4-0.2
				C431,479.9,432.5,479.2,433.4,479.9z" class="st1"></path>
		</g>
		<g>
			<path d="M424.3,481.2l2.3-5l2,0.9c0.3,0.1,0.6,0.1,0.7-0.3c0.2-0.4,0.1-0.6-0.2-0.7l-2.2-1c-0.2-1.3-0.1-2,0.1-2.6
				c0.4-0.8,1-1.1,1.6-0.8c0.5,0.2,0.5,0.6,0.3,1c-0.1,0.3-0.3,0.5-0.4,0.7c-0.3,0.6,0,1.2,0.6,1.5c0.7,0.3,1.3,0.1,1.6-0.7
				c0.6-1.3-0.4-2.6-1.9-3.3c-1.4-0.6-3.1-0.8-3.9,0.9c-0.3,0.6-0.4,1.4-0.3,2.2l-1.3-0.6c-0.3-0.2-0.5,0-0.7,0.3
				c-0.2,0.4-0.1,0.6,0.2,0.8l1.2,0.6l-2.3,5c-0.4,0.8-1.3,0.7-1.5,1.1c-0.1,0.2,0,0.4,0.2,0.5c1.2,0.5,2.4,1,3.6,1.6
				c0.3,0.1,0.5,0.1,0.6-0.1C425,482.7,423.9,482,424.3,481.2z" class="st1"></path>
		</g>
		<g>
			<path d="M420.2,470.3c-0.1,0.6,0.2,1.2,0.9,1.3c0.7,0.1,1.3-0.2,1.4-1c0.3-1.4-0.9-2.4-2.6-2.8
				c-1.5-0.3-3.1-0.1-3.6,1.7c-0.2,0.6-0.1,1.4,0.2,2.2l-1.4-0.3c-0.4-0.1-0.6,0.1-0.6,0.5c-0.1,0.4,0.1,0.6,0.4,0.7l1.3,0.3
				l-1.2,5.4c-0.2,0.9-1.1,0.9-1.2,1.5c-0.1,0.2,0.1,0.4,0.3,0.4c1.3,0.2,2.6,0.4,3.8,0.8c0.3,0.1,0.6,0,0.6-0.2
				c0.1-0.6-1.1-0.9-0.9-1.8l1.2-5.4l2.2,0.5c0.4,0.1,0.6-0.1,0.7-0.5c0.1-0.4,0-0.6-0.4-0.7l-2.4-0.5c-0.5-1.2-0.5-1.9-0.4-2.5
				c0.1-0.8,0.8-1.3,1.3-1.2c0.5,0.1,0.6,0.5,0.5,0.9C420.4,469.7,420.2,470,420.2,470.3z" class="st1"></path>
		</g>
		<g>
			<path d="M408.6,471.1c-2.6,0.1-4.5,1.9-4.4,4.7c0.1,2.8,2.2,4.4,4.8,4.3s4.5-1.9,4.4-4.7
				C413.2,472.6,411.2,471,408.6,471.1z M409.2,479.2c-1.4,0.1-2-2.2-2.1-4.2c-0.1-1.8,0.3-2.9,1.4-3c1.5-0.1,2.1,2.2,2.1,4.2
				C410.6,478,410.2,479.2,409.2,479.2z" class="st1"></path>
		</g>
		<g>
			<path d="M463.5,492.8c-0.6-1.7-2.1-1.7-2.2-2c0-0.1,0.1-0.2,0.2-0.3l0.7-0.2c0.3-0.1,0.4-0.3,0.1-0.6l-1.3-2.1
				c-0.3-0.4-0.4-0.5-0.6-0.4c-0.5,0.2-0.3,1-1.1,1.3l-4.1,1.4c-0.9,0.3-1.4-0.2-1.9,0c-0.2,0.1-0.3,0.3-0.2,0.5c0.4,1,0.8,2,1.2,3
				c0.1,0.2,0.2,0.2,0.4,0.2c0.5-0.2,0.4-0.9,1.3-1.2l3.3-1.2c0.8-0.3,1.9-0.1,2.2,0.9c0.2,0.5,0.2,1.2-1.9,2.2l-2.8,1.3
				c-0.6,0.3-1-0.3-1.4-0.2c-0.2,0.1-0.2,0.2-0.2,0.4c0.3,1.1,0.6,2.1,1,3.2c0.1,0.2,0.2,0.3,0.4,0.2c0.5-0.2,0.6-0.8,1.2-1.2
				l3.1-1.5C463.8,495.2,463.8,493.8,463.5,492.8z" class="st1"></path>
		</g>
		<g>
			<path d="M462.5,482.8c0.8-0.3,1.1-1.3,0.7-2.1c-0.4-0.8-1.5-1.2-2.3-0.9c-0.8,0.3-1.2,1.2-0.7,2.1
				C460.6,482.7,461.7,483.1,462.5,482.8z" class="st1"></path>
		</g>
		<g>
			<path d="M459.5,484.2c0.3-0.2,0.3-0.3,0.1-0.6l-1.7-1.8c-0.4-0.4-0.5-0.4-0.7-0.3c-0.5,0.3-0.1,1-0.9,1.5l-3.8,2
				c-0.8,0.4-1.3-0.3-1.8,0c-0.2,0.1-0.2,0.3-0.1,0.5c0.6,1.1,1.2,2.1,1.7,3.2c0.1,0.2,0.3,0.3,0.5,0.2c0.5-0.3,0.2-1.1,1-1.5
				L459.5,484.2z" class="st1"></path>
		</g>
		<g>
			<path d="M450.8,483.6c-0.3-0.4-0.3-0.6,0.1-1l2.9-2.5c1.7-1.5,1.8-3.2,0.3-5.1c-1-1.3-3.2-2.1-4-1.4
				c-0.3,0.3-0.3,0.7-0.1,0.9c0.1,0.2,0.3,0.3,0.6,0.3c0.5-0.1,1.5-0.2,2.2,0.7c0.8,1,0.3,1.7-0.4,2.3l-0.5,0.4
				c-0.2,0.1-0.2,0.1-0.3,0c-0.1-0.2-0.3-1-0.7-1.6c-1-1.4-2.6-2.3-4.2-1.1c-1.4,1-1.4,2.6-0.3,4.1c0.9,1.2,1.9,1.3,2.5,1.3
				c-0.4,0.7-0.3,1.6,0.5,2.7c0.5,0.6,1,1,1.4,0.7C451.1,484.1,451,483.9,450.8,483.6z M450,480c-0.8,0.6-1.5,0.4-1.9-0.1
				c-0.5-0.6-0.6-1.5,0.6-2.3c0.8-0.6,1.5-0.3,1.9,0.2C451,478.4,451,479.2,450,480z" class="st1"></path>
		</g>
		<g>
			<path d="M449,466.7l-6,6.3c-0.6,0.6-1.4,0.1-1.7,0.5c-0.2,0.2-0.2,0.3,0,0.5c0.9,0.8,1.8,1.6,2.7,2.6
				c0.2,0.2,0.3,0.2,0.5,0c0.4-0.4-0.2-1.1,0.4-1.8l7.6-7.8c0.2-0.2,0.2-0.4-0.1-0.6l-2.1-1.3c-0.5-0.3-0.6-0.2-0.8-0.1
				C449,465.4,449.7,466,449,466.7z" class="st1"></path>
		</g>
		<g>
			<path d="M435.3,469c-0.1,0.1-0.1,0.4,0.1,0.5c1.1,0.7,2.2,1.5,3.3,2.4c0.3,0.2,0.5,0.2,0.7,0
				c0.4-0.4-0.7-1.4-0.1-2.1l1.9-2.5l0.7,0.5c1.5,1.1,3.2,0.7,3.9-0.1c0.5-0.6,0.5-1.2-0.2-1.7c-0.5-0.4-1-0.4-1.5,0
				c-0.6,0.5-1.5,1.4-2.2,0.9l-0.3-0.2l1.6-2.1c0.2-0.3,0.1-0.4-0.2-0.6l-2.3-1c-0.5-0.2-0.7-0.1-0.7,0c-0.3,0.4,0.4,1-0.2,1.7
				l-2.7,3.4C436.5,468.9,435.6,468.6,435.3,469z" class="st1"></path>
		</g>
		<g>
			<path d="M431.3,467.4c2.5,1.2,4.2-0.2,5-1.4c0.2-0.3,0.1-0.5-0.2-0.7c-0.2-0.1-0.4-0.1-0.6,0.1
				c-0.5,0.5-1.6,1.1-3,0.4c-1.1-0.5-1.2-1.7-1-2.5l0.6,0.2c3.1,0.9,4.5,0.5,5-0.6c0.6-1.3-0.1-2.6-1.8-3.5c-2.2-1.1-4.6-0.4-5.8,2
				C428.3,464,429.2,466.4,431.3,467.4z M435,460.2c0.6,0.3,0.8,0.9,0.5,1.5c-0.4,0.8-1.2,1.2-3.2,0.8l-0.4-0.1
				C432.7,460.6,434,459.7,435,460.2z" class="st1"></path>
		</g>
		<g>
			<path d="M420.9,452.6l-2.1,9.9c-0.1,0.3,0.2,0.6,0.5,0.7c0.2,0,0.4,0,0.6-0.2c0.3-0.3,0.7-0.9,1.1-1.2
				c0.2,0.9,0.9,2.1,2.3,2.4c1.7,0.4,4.3-0.3,5-3.6c0.7-3.2-1-4.7-2.6-5.1c-0.8-0.2-1.5,0.1-1.9,0.3c-0.4,0.2-0.6,0.4-0.7,0.4
				c-0.1,0-0.1-0.1-0.1-0.2l1.1-5c0.1-0.4-0.3-0.5-0.5-0.5l-2.5,0.1c-0.5,0-0.6,0.1-0.7,0.3C420.3,451.5,421.1,451.7,420.9,452.6z
				 M424.2,456.8c1.5,0.3,1.5,2.6,1.1,4.3c-0.4,1.7-1.1,2.2-2,2c-1.4-0.3-1.5-2.5-1.1-4.2C422.6,457.2,423.4,456.6,424.2,456.8z" class="st1"></path>
		</g>
		<g>
			<path d="M411.6,462.3c0.2,0,0.4-0.1,0.4-0.3c0-0.5-0.9-0.7-0.9-1.6l-0.1-3.2c0-1.2,0.5-2.1,1.5-2.2
				c0.6,0,1.3,0.2,1.5,2.6l0.3,3.2c0.1,0.7-0.7,0.9-0.7,1.3c0,0.2,0.1,0.3,0.4,0.3c1.2,0.1,2.4,0.2,3.5,0.4c0.2,0,0.4-0.2,0.4-0.4
				c0-0.5-0.7-0.8-0.8-1.5l-0.5-4.2c-0.3-2.8-1.6-3.3-2.8-3.3c-1.9,0-2.5,1.5-2.9,1.6c-0.1,0-0.2-0.1-0.3-0.2
				c-0.5-0.9-1.3-1.3-2.4-1.2c-1.9,0-2.4,1.5-2.8,1.5c-0.1,0-0.2-0.1-0.2-0.3l0-0.8c0-0.3-0.1-0.5-0.5-0.4l-2.4,0.6
				c-0.5,0.1-0.6,0.3-0.6,0.5c0,0.5,0.9,0.6,0.9,1.5l0.1,4.8c0,0.9-0.5,1.2-0.5,1.7c0,0.2,0.2,0.3,0.4,0.3c1.2-0.2,2.3-0.4,3.4-0.5
				c0.2,0,0.4-0.1,0.4-0.3c0-0.5-0.9-0.7-0.9-1.6l-0.2-3.4c-0.1-1.2,1-2.3,1.8-2.3c0.9,0,1.4,0.4,1.4,1.8l0.1,3.6
				c0,0.9-0.8,1.1-0.9,1.6c0,0.2,0.2,0.3,0.4,0.3C409.2,462.3,410.3,462.3,411.6,462.3z" class="st1"></path>
		</g>
		<g>
			<path d="M397.5,463.1c0.6,0.6,1.4,0.9,2.7,0.4c0.8-0.2,1.2-0.6,1.1-1.1c-0.1-0.3-0.4-0.3-0.6-0.3
				c-0.5,0.2-0.6,0.1-0.9-0.4l-1.4-3.5c-0.9-2.1-2.4-2.8-4.7-2.1c-1.5,0.5-3,2.3-2.7,3.4c0.1,0.4,0.5,0.5,0.9,0.4
				c0.2-0.1,0.4-0.2,0.4-0.5c0.1-0.5,0.3-1.5,1.4-1.8c1.2-0.4,1.7,0.3,2,1.1l0.2,0.6c0.1,0.2,0.1,0.3-0.1,0.3s-1-0.1-1.7,0.1
				c-1.6,0.5-3,1.7-2.5,3.5c0.5,1.7,2,2.3,3.8,1.7C396.9,464.6,397.4,463.7,397.5,463.1z M394.2,462.2c-0.3-1,0.3-1.6,0.8-1.7
				c0.7-0.2,1.4,0.1,1.8,1.3c0.3,0.9-0.1,1.5-0.7,1.7C395.4,463.8,394.7,463.6,394.2,462.2z" class="st1"></path>
		</g>
		<g>
			<path d="M390.5,465l-2.2-3c-1.8-2.5-3.2-2.3-4.2-1.8c-1.6,0.9-1.2,2.3-1.6,2.5c-0.1,0.1-0.2,0-0.3-0.1l-2.5-4.4
				c-0.2-0.3-0.4-0.3-0.6-0.1l-1.8,1.7c-0.4,0.4-0.4,0.5-0.3,0.7c0.3,0.5,1,0.1,1.5,0.9l4.3,7.6c0.4,0.8-0.1,1.5,0.2,2
				c0.1,0.2,0.3,0.2,0.5,0.1c0.9-0.7,1.9-1.3,2.9-1.9c0.1-0.1,0.2-0.3,0.1-0.4c-0.3-0.5-1-0.3-1.4-1.1l-1.7-3
				c-0.4-0.7-0.5-1.8,0.4-2.3c0.5-0.3,1.1-0.4,2.5,1.5l1.8,2.5c0.4,0.5-0.2,1,0.1,1.5c0.1,0.2,0.3,0.2,0.4,0.1
				c1.1-0.6,2.1-1.1,3.2-1.6c0.2-0.1,0.2-0.3,0.1-0.5C391.7,465.4,390.9,465.6,390.5,465z" class="st1"></path>
		</g>
		<g>
			<path d="M380.1,468.4c-0.3-0.3-0.5-0.4-0.7-0.2c-0.2,0.2-0.2,0.4-0.1,0.7c0.4,1.1,0.2,2.3-0.6,3.1
				c-1.8,1.6-4.2,1.3-6.6-1.4c-1.9-2.2-2-3.6-0.9-4.6c0.9-0.8,2.1-0.8,3.2,0.5c0.5,0.6,1.3,0.7,1.9,0.2c0.7-0.6,0.6-1.7-0.1-2.6
				c-1.2-1.3-3.3-1-5.4,0.8c-2.6,2.3-2.9,6-0.2,9c2.5,2.8,6,3.2,8.7,0.8C382.2,471.9,380.8,469.2,380.1,468.4z" class="st1"></path>
		</g>
		<g>
			<path d="M402.4,476c-0.2,0.1-0.3,0.3-0.3,0.6c0,1.2-0.6,2.2-1.7,2.7c-2.3,0.9-4.4-0.3-5.7-3.6
				c-1.1-2.7-0.6-4.1,0.8-4.7c1.1-0.4,2.2,0,2.8,1.6c0.3,0.7,1,1.1,1.7,0.8c0.8-0.3,1.2-1.4,0.8-2.5c-0.7-1.7-2.8-2.1-5.4-1.1
				c-3.2,1.3-4.8,4.6-3.3,8.3c1.4,3.5,4.5,5.1,7.9,3.8c3.7-1.5,3.4-4.5,3-5.5C402.8,476.1,402.6,475.9,402.4,476z" class="st1"></path>
		</g>
	</g>
	<g>
		<path d="M396.5,514.6l-2.2-0.6c-0.2-0.1-0.3-0.2-0.3-0.3c0.1-0.4,0.7-0.4,0.8-0.9l0.7-4.3l-3.4,4.6
			c-0.2,0.3-0.5,0.2-0.6-0.1l-0.6-5.9l-1.8,4.4c-0.2,0.4,0.4,0.7,0.2,1c-0.1,0.1-0.2,0.2-0.4,0.1l-1.4-0.4c-0.2-0.1-0.3-0.2-0.2-0.3
			c0.2-0.4,0.8-0.3,1.1-0.9l1.9-4.7c0.2-0.4-0.3-0.8-0.2-1.2c0.1-0.1,0.2-0.2,0.4-0.2l1.8,0.5c0.1,0,0.2,0.1,0.2,0.2l0.5,5l3-4
			c0.1-0.1,0.2-0.1,0.3-0.1l1.6,0.5c0.2,0.1,0.3,0.2,0.3,0.3c-0.1,0.4-0.7,0.4-0.8,1l-0.9,4.8c-0.1,0.7,0.4,0.9,0.4,1.4
			C396.8,514.6,396.7,514.7,396.5,514.6z" class="st0"></path>
		<path d="M397.8,513.4c0.3-1.1,1.5-1.3,2.5-1c0.4,0.1,0.7,0.3,0.8,0.4c0,0,0.1,0.1,0.1,0.1c0,0,0.1,0,0.1-0.1l0.1-0.4
			c0.1-0.5,0.1-1-0.7-1.3c-0.7-0.2-1.2,0.2-1.4,0.5c-0.1,0.1-0.3,0.1-0.4,0.1c-0.2-0.1-0.4-0.3-0.3-0.5c0.2-0.7,1.5-1.1,2.5-0.8
			c1.5,0.4,2,1.3,1.7,2.7l-0.5,2.3c-0.1,0.4,0,0.4,0.3,0.5c0.2,0,0.3,0.2,0.2,0.3c-0.1,0.3-0.4,0.3-0.9,0.2
			c-0.8-0.2-1.1-0.6-1.2-1.1c-0.3,0.3-0.8,0.6-1.7,0.3C398.1,515.2,397.5,514.4,397.8,513.4z M401,514.3c0.2-0.8-0.1-1.2-0.5-1.3
			c-0.3-0.1-0.8,0-1,0.6c-0.2,0.8,0.1,1.2,0.6,1.4C400.4,515.1,400.8,514.9,401,514.3z" class="st0"></path>
		<path d="M404,515l0.8-2.8l-0.5-0.1c-0.4-0.1-0.2-0.6,0.1-0.6c0.8,0.1,0.9,0,1.5-0.8c0.3-0.4,1-0.2,0.8,0.3l-0.3,1
			l1.5,0.4c0.2,0.1,0.2,0.3,0.2,0.4s-0.2,0.3-0.4,0.3l-1.5-0.4l-0.8,2.9c-0.1,0.5-0.1,0.9,0.3,1c0.6,0.2,0.8-0.4,0.9-1
			c0.1-0.5,0.7-0.5,0.7,0c0.1,1.2-0.6,2.1-2.1,1.7C404.2,517,403.7,516.2,404,515z" class="st0"></path>
		<path d="M408.2,515.2c0.5-1.6,2-2.2,3.3-1.9c1.5,0.4,1.8,1.3,1.6,1.9c-0.2,0.6-0.7,0.8-1,0.7
			c-0.3-0.1-0.6-0.4-0.4-0.8c0.1-0.4,0.1-1.1-0.5-1.3c-0.7-0.2-1.1,0.5-1.3,1.3c-0.3,1.1-0.2,2.2,0.8,2.4c0.8,0.2,1.2-0.2,1.4-0.6
			c0.2-0.4,0.7-0.1,0.6,0.3c-0.4,0.9-1.2,1.8-2.7,1.4C408.6,518.2,407.8,516.9,408.2,515.2z" class="st0"></path>
		<path d="M418.9,520.8c0,0.1-0.2,0.2-0.3,0.1l-2.1-0.6c-0.1,0-0.1-0.1-0.1-0.2c0.1-0.3,0.5-0.3,0.6-0.6l0.4-1.9
			c0.3-1.4-0.1-1.6-0.4-1.7c-0.6-0.2-1.1,0.3-1.2,0.8l-0.6,2.1c-0.1,0.5,0.2,0.7,0.1,1.1c0,0.1-0.1,0.2-0.3,0.1l-2-0.6
			c-0.2-0.1-0.3-0.2-0.2-0.3c0.1-0.3,0.6-0.3,0.8-0.8l1.5-5.1c0.2-0.5-0.4-0.7-0.3-1c0-0.1,0.1-0.2,0.4-0.2l1.5,0.1
			c0.2,0,0.3,0.1,0.3,0.3l-0.9,3c0,0.1,0,0.2,0.1,0.2c0.2,0.1,0.7-0.7,1.8-0.4c0.6,0.2,1.4,0.7,1,2.6l-0.4,2.1
			C418.5,520.2,419,520.5,418.9,520.8z" class="st0"></path>
		<path d="M419.7,519.6c0.3-1.1,1.5-1.3,2.5-1c0.4,0.1,0.7,0.3,0.8,0.4c0,0,0.1,0.1,0.1,0.1c0,0,0.1,0,0.1-0.1l0.1-0.4
			c0.1-0.5,0.1-1-0.7-1.3c-0.7-0.2-1.2,0.2-1.4,0.5c-0.1,0.1-0.3,0.1-0.4,0.1c-0.2-0.1-0.4-0.3-0.3-0.5c0.2-0.7,1.5-1.1,2.5-0.8
			c1.5,0.4,2,1.3,1.7,2.7l-0.5,2.3c-0.1,0.4,0,0.4,0.3,0.5c0.2,0,0.3,0.2,0.2,0.3c-0.1,0.3-0.4,0.3-0.9,0.2
			c-0.8-0.2-1.1-0.6-1.2-1.1c-0.3,0.3-0.8,0.6-1.7,0.3C420,521.4,419.4,520.6,419.7,519.6z M422.9,520.5c0.2-0.8-0.1-1.2-0.5-1.3
			c-0.3-0.1-0.8,0-1,0.6c-0.2,0.8,0.1,1.2,0.6,1.4C422.3,521.3,422.7,521.1,422.9,520.5z" class="st0"></path>
	</g>
</g>
<g>
	<g>
		<polygon points="488.8,165.5 487.2,203.2 485.4,213.6 471.4,248.7 430.3,337.2 415.4,337.9 423.4,324.1 431.3,295.7 
			458.1,225.2" class="st18"></polygon>
		<path d="M429.3,334.1c-0.5,1.2-2.3,3.5-0.4,4.4c0.4,0.1,0.7,0.2,0.9,0.1c0.7,0.4,1.4,0.7,1.8,0.9
			c3.4,2.1,9,5.6,13.1,4c4.6-1.8,6.2-10.4,9.7-19.4c16.8-43.3,38-76.1,48.1-139c3-18.6,5.1-51.6,13.7-66.3c0.3-0.5,3.9-5.6,3.2-6.1
			c-0.5-0.4-6.4,9.2-6.6,9.6c-9,12.2-22.1,36.6-22.4,37.5c-4,11.5-2.3,32.9-5.3,47.6C474.3,244.3,444.1,301,429.3,334.1z" class="st6"></path>
		<path d="M434,285.8c-4.7,11.2-13.1,51-24.1,53.5c-3.3,0.8-5.4-1-8.3-2.3c-10.4-4.6-22.5-9.4-92.6-43.1
			c-9.7-4.7-28.3-11.9-29.6-13.8c0-0.2,0.2-0.8,0.3-1.1c0.7-2.7,3.8-6.9,5.2-9.8c0.5-0.8,0.7-1.9,1-2.6
			c30.8-80.2,47.9-118.4,86.1-181.5c20-33,19.2-35.1,24.1-42c5.8-8.1,6.6-2,34,7.6c13.3,4.7,26.8,8.5,40,13.4
			c11.1,4.1,21.7,9.3,32.6,13.9c8.5,3.6,26.9,9.7,26,14c-3.2,15.1-18.5,28.7-46.4,81.2C452.3,229.8,455.4,234.5,434,285.8z" class="st6"></path>
		<path d="M415.4,337.9c0.1,1.1,2.5,0.5,3.2,0.6c2.8,0,5.5-0.1,8.3,0.1c0.9,0,2.5,0.5,2.6-0.9c0-1.4-1.7-1.1-2.6-1.1
			c-2.8,0-5.6,0.1-8.4,0.5C417.9,337,415.4,336.8,415.4,337.9z"></path>
		<path d="M429.3,334.1c-0.5,1.2-2.3,3.5-0.4,4.4c0.4,0.1,0.7,0.2,0.9,0.1c0.7,0.4,1.4,0.7,1.8,0.9c3.4,2.1,9,5.6,13.1,4
			c4.6-1.8,6.2-10.4,9.7-19.4c16.8-43.3,38-76.1,48.1-139c3-18.6,5.1-51.6,13.7-66.3c0.3-0.5,3.9-5.6,3.2-6.1
			c-0.5-0.4-6.4,9.2-6.6,9.6c-9,12.2-8.9,37.7-11.6,58.9c-2.4,18.6-9.6,47.3-20.2,74.2c-9,22.8-18.3,42.7-28.4,68.8
			c-1.7,4.4-4.9,12.7-7.6,16.4c-2.6,3.6-7.4-0.4-11.9-2.7c-0.9-0.5-1.3-1.6-0.9-2.6c17.1-37.4,31.4-64.4,43.9-94.5
			c1.7-4.2,9.8-24.5,10.9-28.9c3.9-14.8,2.5-31,4.9-45.6c1.1-6.8,1.2-7.7,2.9-10.9c-1.1-0.3-4.1,3.5-4.4,4.3
			c-4,11.5-2.3,32.9-5.3,47.6C474.3,244.3,444.1,301,429.3,334.1z"></path>
		<path d="M507.2,134.6c13.8-22.9,21.3-32.3,22.8-40.8c0.2-0.9,0.7-2.1-0.2-3.1c-0.2-0.2-0.4-0.6-0.6-0.8c-1.8-2.2-6.2-5-10.1-6.9
			c-50.5-25.2-62.5-26.1-89.5-35.7c-22-7.8-25.6-12.8-31.5-10.4c-4.3,1.8-7.9,8.9-10.1,13.1c-27.1,52.1-32.6,55.9-49,86.8
			c-20.4,38.4-41.2,88.9-56,129.9c-0.2,0.4-0.4,0.9-0.5,1.5c-1.5,3.3-6.3,11.2-4.7,13.2c0.8,1.1,9.2,4.8,10.5,5.3
			c39.3,17.7,83.3,39.7,107.6,50.2c3.5,1.5,7.1,3.6,10.9,4.2c13.7,2.2,19.6-26.8,23.6-40.8c1.3-4.7,4.9-12.9,5.3-13.8
			c8.7-21.2,15.7-44.3,25.9-66.7C472.9,194.9,496.3,152.6,507.2,134.6z M433.7,285.7c-4.7,11.2-13.1,51-24.1,53.5
			c-3.3,0.8-5.3-1-8.3-2.2c-10.4-4.6-22.4-9.3-92.3-42.9c-9.7-4.7-28.2-11.9-29.5-13.8c0-0.2,0.2-0.8,0.3-1.1
			c0.7-2.7,3.8-6.9,5.2-9.8c0.5-0.8,0.7-1.9,1-2.6c30.8-80.2,47.9-118.4,86.1-181.5c20-33,19.2-35.1,24.1-42c5.8-8.2,6.6-2,33.9,7.6
			c13.2,4.7,26.7,8.5,39.9,13.4c11,4.1,21.6,9.2,32.4,13.9c8.4,3.6,18.6,8.4,23.9,13.1c0.8,0.7,1.2,1.4,1.3,2.5
			c-0.4,1.6-0.8,3.6-2.8,7.4c-7.2,13.3-14.9,19.7-42.7,72.2C452.1,229.7,455.2,234.4,433.7,285.7z"></path>
		<g>
			<g>
				<path d="M442.6,154.1c-1.4-2.6-4.3-3.6-7.1-1.8c-2.9,1.8-3.6,4.8-2.3,7.2c1.6,2.9,4.3,2.8,5.9,2
					c0.3-0.2,0.4-0.5,0.2-0.8c-0.1-0.2-0.3-0.4-0.6-0.3c-0.8,0.1-2.3,0-3.2-1.6c-0.7-1.4-0.1-2.6,0.7-3.2l0.5,0.6
					c2.5,3,4,3.6,5.3,2.8C443.6,158,443.8,156.2,442.6,154.1z M441.1,156.5c-0.9,0.5-2,0.5-3.6-1.3l-0.3-0.4c2-1.4,3.9-1.4,4.5-0.2
					C442.1,155.4,441.8,156,441.1,156.5z" class="st1"></path>
			</g>
			<g>
				<path d="M430.2,147.5c3.1,2.1,4.6,2.3,5.7,1.2c1.2-1.3,0.9-3.1-0.7-4.7c-2-2-4.9-2.2-7.2,0.2
					c-2.4,2.5-2.2,5.5-0.4,7.5c2.2,2.3,4.7,1.4,6.1,0.2c0.3-0.2,0.3-0.6,0-0.8c-0.2-0.2-0.4-0.2-0.7-0.1c-0.7,0.4-2.2,0.6-3.4-0.6
					c-1-1.1-0.7-2.4-0.1-3.2L430.2,147.5z M434.5,144.7c0.5,0.6,0.5,1.3-0.1,1.9c-0.7,0.7-1.8,1-3.8-0.2l-0.4-0.3
					C431.7,144.3,433.6,143.7,434.5,144.7z" class="st1"></path>
			</g>
			<g>
				<path d="M423.9,145l3.5-5.6l2.2,1.4c0.3,0.2,0.7,0.1,0.9-0.3c0.2-0.4,0.2-0.7-0.1-0.9l-2.3-1.5
					c-0.1-1.5,0.2-2.4,0.6-3c0.5-0.9,1.4-1.2,1.9-0.8c0.5,0.3,0.5,0.8,0.2,1.2c-0.2,0.3-0.4,0.6-0.6,0.8c-0.4,0.6-0.2,1.4,0.5,1.9
					c0.7,0.5,1.5,0.3,2-0.6c0.9-1.5,0-3.2-1.7-4.2c-1.5-0.9-3.4-1.3-4.5,0.6c-0.4,0.7-0.7,1.6-0.7,2.6l-1.3-0.9
					c-0.3-0.2-0.6-0.1-0.9,0.3c-0.3,0.4-0.2,0.7,0.1,1l1.3,0.8l-3.4,5.6c-0.6,0.9-1.6,0.6-1.9,1.2c-0.1,0.2-0.1,0.5,0.2,0.6
					c1.3,0.7,2.5,1.5,3.7,2.4c0.3,0.2,0.6,0.2,0.7,0C424.5,146.9,423.3,146,423.9,145z" class="st1"></path>
			</g>
			<g>
				<path d="M421.1,131.5c-0.2,0.7,0.1,1.4,0.8,1.7c0.8,0.3,1.5-0.1,1.8-1c0.6-1.6-0.6-2.9-2.4-3.6
					c-1.6-0.6-3.5-0.5-4.3,1.6c-0.3,0.7-0.3,1.7-0.1,2.6l-1.5-0.5c-0.4-0.1-0.6,0-0.8,0.5c-0.1,0.4,0,0.7,0.4,0.9l1.4,0.5l-2.2,6.2
					c-0.3,1-1.4,1-1.6,1.6c-0.1,0.2,0,0.4,0.3,0.5c1.4,0.4,2.8,0.8,4.1,1.4c0.3,0.1,0.6,0.1,0.7-0.2c0.2-0.7-1.1-1.3-0.7-2.3
					l2.2-6.2l2.3,0.8c0.4,0.1,0.7,0,0.8-0.5c0.1-0.4,0.1-0.7-0.3-0.9l-2.6-0.9c-0.4-1.4-0.2-2.3,0-3c0.3-0.9,1.1-1.4,1.7-1.2
					c0.6,0.2,0.6,0.6,0.4,1.1C421.4,130.9,421.2,131.2,421.1,131.5z" class="st1"></path>
			</g>
			<g>
				<path d="M408.2,131.2c-2.8-0.2-5.1,1.7-5.5,4.9c-0.3,3.2,1.6,5.4,4.4,5.6c2.8,0.2,5.2-1.7,5.5-5
					C413,133.5,411,131.4,408.2,131.2z M407.5,140.7c-1.6-0.1-1.8-2.9-1.6-5.2c0.2-2.1,0.9-3.4,2-3.3c1.6,0.1,1.9,2.8,1.6,5.1
					C409.2,139.5,408.6,140.8,407.5,140.7z" class="st1"></path>
			</g>
			<g>
				<path d="M468.9,165.3c-0.4-2.3-2.4-2.5-2.4-3c0-0.2,0.1-0.3,0.3-0.4l0.9-0.2c0.4-0.1,0.5-0.3,0.3-0.8l-1.3-2.9
					c-0.3-0.6-0.4-0.6-0.7-0.6c-0.7,0.1-0.5,1.2-1.6,1.5l-5.3,1.1c-1.1,0.2-1.7-0.5-2.3-0.3c-0.2,0-0.4,0.3-0.3,0.5
					c0.4,1.3,0.7,2.6,1,4c0.1,0.2,0.2,0.3,0.5,0.3c0.7-0.1,0.7-1,1.8-1.2l4.3-0.9c1-0.2,2.4,0.2,2.6,1.5c0.1,0.7,0.1,1.6-2.7,2.5
					l-3.7,1.2c-0.8,0.3-1.2-0.6-1.7-0.5c-0.2,0-0.3,0.3-0.3,0.5c0.3,1.5,0.5,2.7,0.7,4.3c0,0.3,0.2,0.4,0.5,0.4
					c0.6-0.1,0.9-1,1.7-1.3l4.1-1.4C468.8,168.4,469.1,166.7,468.9,165.3z" class="st1"></path>
			</g>
			<g>
				<path d="M469.1,152.5c1.1-0.3,1.6-1.5,1.2-2.5c-0.4-1.1-1.7-1.8-2.8-1.5c-1.1,0.3-1.6,1.4-1.2,2.6
					C466.8,152.1,468,152.8,469.1,152.5z" class="st1"></path>
			</g>
			<g>
				<path d="M465.2,153.8c0.4-0.2,0.5-0.4,0.2-0.8l-1.8-2.6c-0.4-0.6-0.6-0.5-0.8-0.5c-0.6,0.3-0.3,1.3-1.3,1.7l-5,2
					c-1,0.4-1.6-0.6-2.2-0.3c-0.2,0.1-0.3,0.3-0.2,0.6c0.6,1.4,1.1,2.8,1.6,4.3c0.1,0.2,0.3,0.4,0.5,0.3c0.6-0.3,0.4-1.4,1.4-1.8
					L465.2,153.8z" class="st1"></path>
			</g>
			<g>
				<path d="M454.6,151.7c-0.3-0.5-0.3-0.8,0.3-1.2l3.9-2.7c2.3-1.6,2.8-3.7,1.2-6.3c-1-1.7-3.5-3-4.7-2.3
					c-0.5,0.3-0.5,0.8-0.3,1.1c0.1,0.2,0.4,0.4,0.7,0.4c0.6,0,1.8-0.1,2.6,1.2c0.8,1.4,0.1,2.2-0.8,2.8l-0.6,0.4
					c-0.2,0.1-0.3,0.1-0.3,0c-0.1-0.2-0.2-1.2-0.6-2c-1-1.8-2.8-3.2-4.9-2c-1.8,1.1-2.1,3-1,5c0.9,1.6,2.1,1.9,2.8,1.9
					c-0.6,0.9-0.6,1.9,0.2,3.4c0.5,0.9,1,1.4,1.5,1C454.8,152.4,454.8,152,454.6,151.7z M454.2,147.1c-1.1,0.6-1.8,0.3-2.2-0.4
					c-0.5-0.8-0.4-1.9,1.1-2.8c1.1-0.7,1.9-0.1,2.2,0.5C455.7,145.2,455.6,146.2,454.2,147.1z" class="st1"></path>
			</g>
			<g>
				<path d="M455.1,130.6l-8.2,6.9c-0.8,0.7-1.6,0-2.1,0.4c-0.2,0.2-0.2,0.4,0,0.6c0.9,1.1,1.8,2.2,2.7,3.5
					c0.2,0.2,0.4,0.3,0.6,0.1c0.5-0.4,0-1.4,0.8-2.1l10.3-8.7c0.3-0.3,0.3-0.5-0.1-0.8l-2.4-1.8c-0.5-0.4-0.7-0.3-0.9-0.2
					C455.3,129,456,129.9,455.1,130.6z" class="st1"></path>
			</g>
			<g>
				<path d="M438.5,131.8c-0.1,0.2-0.1,0.5,0.1,0.6c1.2,1,2.3,2.1,3.5,3.3c0.3,0.3,0.6,0.3,0.8,0.1
					c0.5-0.5-0.6-1.7,0.2-2.6l2.6-2.8l0.8,0.7c1.7,1.5,3.7,1.3,4.6,0.3c0.7-0.7,0.7-1.4,0-2.1c-0.6-0.6-1.1-0.6-1.8-0.1
					c-0.8,0.5-2,1.5-2.7,0.9l-0.3-0.3l2.2-2.4c0.3-0.3,0.2-0.5-0.2-0.7l-2.5-1.4c-0.5-0.3-0.7-0.2-0.9-0.1c-0.4,0.5,0.3,1.3-0.5,2.1
					l-3.7,3.8C439.9,131.8,438.9,131.3,438.5,131.8z" class="st1"></path>
			</g>
			<g>
				<path d="M434.1,129.4c2.6,1.7,4.8,0.2,6-1.1c0.3-0.3,0.2-0.6-0.1-0.8c-0.2-0.2-0.4-0.2-0.7,0
					c-0.7,0.5-2.1,1.1-3.5,0.2c-1.2-0.8-1.1-2.1-0.7-3.1l0.7,0.3c3.4,1.4,5.1,1.1,5.9-0.2c1-1.5,0.3-3.2-1.6-4.4
					c-2.4-1.5-5.3-1-7.1,1.8C431.3,125,431.9,127.9,434.1,129.4z M439.6,121.2c0.7,0.4,0.8,1.2,0.3,1.8c-0.6,0.9-1.6,1.4-3.8,0.7
					l-0.5-0.1C436.8,121.4,438.5,120.5,439.6,121.2z" class="st1"></path>
			</g>
			<g>
				<path d="M424.8,110.9l-4,11.3c-0.1,0.4,0.1,0.7,0.4,0.8c0.2,0.1,0.4,0,0.7-0.2c0.4-0.3,0.9-1,1.5-1.3
					c0,1.1,0.7,2.6,2.1,3.1c1.9,0.6,4.9,0.1,6.2-3.7c1.3-3.7-0.4-5.7-2.1-6.3c-0.9-0.3-1.7-0.1-2.2,0.2c-0.4,0.2-0.7,0.4-0.8,0.4
					c-0.1,0-0.1-0.1-0.1-0.2l2-5.7c0.2-0.5-0.2-0.6-0.4-0.6l-2.8-0.1c-0.5,0-0.7,0.1-0.8,0.3C424.2,109.6,425.2,109.9,424.8,110.9z
					 M427.8,116.1c1.7,0.5,1.3,3.2,0.6,5.2c-0.7,2-1.6,2.5-2.5,2.2c-1.6-0.5-1.3-3.1-0.6-5C425.9,116.4,426.9,115.8,427.8,116.1z" class="st1"></path>
			</g>
			<g>
				<path d="M412.9,121.2c0.2,0,0.4-0.1,0.4-0.3c0.1-0.6-0.9-0.9-0.8-1.9l0.5-3.7c0.2-1.4,0.9-2.4,2-2.4
					c0.6,0,1.4,0.4,1.3,3.1l-0.2,3.7c-0.1,0.9-0.9,1-1,1.4c0,0.2,0,0.4,0.3,0.4c1.3,0.2,2.6,0.5,3.8,0.8c0.2,0.1,0.4-0.1,0.5-0.4
					c0.1-0.6-0.7-1-0.7-1.8l0.1-4.9c0.1-3.2-1.3-4-2.5-4.1c-2.1-0.1-2.9,1.6-3.4,1.6c-0.2,0-0.2-0.1-0.3-0.3
					c-0.4-1.1-1.2-1.6-2.4-1.6c-2-0.1-2.8,1.5-3.3,1.5c-0.1,0-0.2-0.1-0.2-0.3l0.1-1c0-0.4-0.1-0.5-0.5-0.4l-2.6,0.5
					c-0.6,0.1-0.6,0.3-0.7,0.5c-0.1,0.6,0.8,0.7,0.7,1.7l-0.7,5.5c-0.1,1-0.8,1.3-0.9,1.9c0,0.2,0.1,0.4,0.3,0.4
					c1.3-0.1,2.5-0.2,3.7-0.2c0.3,0,0.4-0.1,0.5-0.3c0.1-0.6-0.8-0.9-0.7-1.9l0.4-3.9c0.1-1.4,1.4-2.5,2.3-2.5
					c0.9,0.1,1.4,0.6,1.2,2.2l-0.5,4.1c-0.1,1-1.1,1.2-1.2,1.8c0,0.2,0.1,0.4,0.4,0.4C410.3,121.1,411.6,121.1,412.9,121.2z" class="st1"></path>
			</g>
			<g>
				<path d="M397.7,120.8c0.5,0.8,1.3,1.1,2.8,0.8c0.8-0.2,1.4-0.5,1.3-1.1c-0.1-0.3-0.4-0.4-0.6-0.4
					c-0.5,0.1-0.7,0.1-0.8-0.6l-0.9-4.1c-0.5-2.5-2-3.4-4.6-2.8c-1.7,0.4-3.5,2.3-3.3,3.6c0.1,0.5,0.5,0.6,0.8,0.5
					c0.2-0.1,0.4-0.2,0.5-0.5c0.2-0.5,0.6-1.6,1.8-1.9c1.3-0.3,1.7,0.5,1.9,1.5l0.2,0.7c0.1,0.2,0,0.3-0.1,0.3c-0.1,0-1-0.2-1.8,0
					c-1.7,0.4-3.4,1.7-3.2,3.8c0.2,1.9,1.7,2.7,3.6,2.3C396.9,122.4,397.5,121.5,397.7,120.8z M394.4,119.5
					c-0.2-1.2,0.5-1.7,1.1-1.9c0.8-0.2,1.5,0.2,1.7,1.7c0.2,1.1-0.3,1.7-1,1.9C395.4,121.4,394.7,121.1,394.4,119.5z" class="st1"></path>
			</g>
			<g>
				<path d="M390.1,122.3l-1.7-3.6c-1.4-3-2.9-2.9-3.9-2.4c-1.7,0.8-1.6,2.4-2.1,2.6c-0.1,0.1-0.2,0-0.3-0.2l-1.8-5.2
					c-0.1-0.4-0.3-0.4-0.6-0.1l-2.1,1.7c-0.5,0.4-0.5,0.5-0.4,0.7c0.2,0.6,1,0.2,1.4,1.1l3,8.8c0.3,0.9-0.3,1.7-0.1,2.2
					c0.1,0.2,0.3,0.3,0.5,0.2c1.1-0.6,2.1-1.3,3.3-1.8c0.2-0.1,0.2-0.3,0.2-0.5c-0.2-0.6-0.9-0.4-1.2-1.3l-1.3-3.6
					c-0.3-0.8-0.1-2.1,0.8-2.6c0.5-0.3,1.2-0.4,2.3,1.9l1.4,3c0.3,0.6-0.3,1.2-0.2,1.6c0.1,0.2,0.2,0.3,0.4,0.2
					c1.2-0.6,2.4-1,3.6-1.4c0.2-0.1,0.3-0.3,0.2-0.5C391.3,122.8,390.5,123,390.1,122.3z" class="st1"></path>
			</g>
			<g>
				<path d="M378.9,125c-0.2-0.4-0.4-0.5-0.7-0.3c-0.2,0.2-0.3,0.4-0.2,0.7c0.2,1.3-0.2,2.6-1.2,3.4
					c-2.1,1.6-4.4,1-6.3-2.2c-1.5-2.6-1.3-4.2,0-5.2c1-0.8,2.2-0.6,3.1,0.9c0.4,0.7,1.2,0.9,1.9,0.4c0.8-0.6,0.9-1.8,0.3-2.9
					c-1-1.6-3.1-1.4-5.5,0.4c-2.9,2.3-3.8,6.3-1.7,9.9c2,3.4,5.4,4.2,8.5,1.8C380.4,129.2,379.5,126,378.9,125z" class="st1"></path>
			</g>
			<g>
				<path d="M400.7,136.2c-0.3,0.1-0.4,0.3-0.4,0.6c-0.2,1.4-1,2.5-2.2,2.9c-2.5,0.7-4.6-0.8-5.4-4.8
					c-0.6-3.2,0.1-4.7,1.6-5.2c1.3-0.4,2.3,0.3,2.7,2.2c0.2,0.9,0.9,1.4,1.7,1.1c1-0.3,1.5-1.5,1.2-2.7c-0.4-2-2.6-2.7-5.5-1.9
					c-3.6,1.1-5.7,4.7-4.8,9.1c0.8,4.2,3.9,6.4,7.6,5.3c4.2-1.2,4.4-4.8,4.1-6C401.2,136.3,401,136.1,400.7,136.2z" class="st1"></path>
			</g>
		</g>
	</g>
	<g>
		<g>
			<path d="M373.9,193.2C373.8,193.2,373.8,193.2,373.9,193.2c-1.7-2.6-2.7-5.2-2.8-8.2c0-2.1,0.4-4,1.4-5.8
				c0.3-0.5,0.6-0.9,1-1.3c-0.3-0.1-0.5-0.3-0.7-0.4c-2.6-1.4-4.9-3.2-7-5.4c-1-1.1-2-2.4-2.6-3.8c-0.3-0.7-0.5-1.4-0.5-2.1
				c-0.1-1,0.2-1.9,0.9-2.7c0.8-0.9,1.8-1.1,2.9-0.8c1.1,0.3,2.1,1,3,1.8c1.3,1.2,2.3,2.5,3.3,4c1.1,1.8,2,3.7,2.6,5.7
				c0.1,0.2,0.1,0.5,0.2,0.7c0.2-0.2,0.4-0.3,0.6-0.4c0.9-0.6,1.9-1,2.8-1.5c2.1-0.9,4.3-1.5,6.5-2c3.1-0.8,6.2-1.3,9.4-1.6
				c1.1-0.1,2.1-0.1,3.3-0.1c-0.4-0.3-0.7-0.5-1-0.7c-0.4-0.3-0.9-0.7-1.2-1.2c-0.2-0.2-0.3-0.5-0.4-0.8c-0.1-0.4-0.1-0.7,0.1-1.1
				c0.3-0.4,0.8-0.5,1.2-0.2c0.1,0.1,0.3,0.3,0.4,0.4c0.5,0.4,1,0.7,1.6,1c1.5,0.7,3.1,1.2,4.7,1.3c1.2,0.1,2.5,0.4,3.6,0.8
				c2.5,0.9,4.7,2.3,6.6,4.2c0.9,0.9,1.7,2,2.4,3.1c0.6,0.9,1.3,1.8,1.9,2.8c2.2,3.4,4.5,6.8,6.6,10.2c0.2,0.4,0.4,0.7,0.7,1.1
				c0.1,0.3,0.1,0.4,0,0.6c-0.1,0.1-0.3,0.2-0.6,0c-0.2-0.1-0.4-0.2-0.6-0.4c-1.3-0.8-2.6-1.6-3.9-2.4c-2.1-1.3-4.3-2.5-6.3-3.9
				c-0.4-0.3-0.9-0.5-1.3-0.7c-1-0.4-2,0-2.5,1c-0.3,0.6-0.4,1.3-0.3,2.1c0,0.4,0.1,0.8,0.2,1.2c0.3,1.6,0.3,3.2,0.1,4.7
				c0,0.4-0.1,0.8-0.1,1.2c0,0.2,0.1,0.3,0.2,0.3c0.5,0.2,1.1,0.5,1.6,0.7c1.1,0.5,2.2,1,3.3,1.4c0.3,0.1,0.6,0.3,0.9,0.4
				c1.6,0.7,3.2,1.4,4.7,2.1c0.3,0.1,0.6,0.3,0.8,0.4c0.4,0.2,0.7,0.5,1,0.9c0.9,1.1,1,2.6,0.2,3.7c-0.4,0.5-0.8,1-1.4,1.3
				c-0.5,0.2-0.9,0.4-1.4,0.6c-1.9,0.6-3.8,0.8-5.8,0.7c-2.8-0.2-5.5-0.6-8.2-1.5c-1.2-0.4-2.3-0.8-3.4-1.4
				c-0.3-0.1-0.5-0.2-0.8-0.1c-1.7,0.5-3.4,0.8-5.1,0.9c-0.3,0-0.6,0-0.9,0c-0.1,0-0.3,0-0.4,0c-0.4,0-0.7,0-1.1-0.1
				c-2.3-0.1-4.6-0.5-6.8-1.2c-1.5-0.5-2.9-1-4.2-1.7c-3-1.5-5.7-3.5-7.9-6.1c-0.1-0.1-0.2-0.2-0.3-0.4c0,0,0.1,0,0.1,0
				c1.4,0,2.7,0.1,4.1,0c0.5,0,1,0,1.6-0.1c0.1,0,0.3-0.1,0.4-0.2c0.2-0.2,0.2-0.4,0-0.6c-0.1-0.1-0.3-0.2-0.4-0.2
				c-0.3-0.1-0.5-0.1-0.8-0.1c-1.8-0.2-3.6-0.3-5.4-0.4C374.4,193.3,374.1,193.4,373.9,193.2z" class="st19"></path>
			<path d="M414,181.6c0.1,0.1,0.2,0.1,0.2,0.2c1.3,1.1,2.5,2.2,3.8,3.2c1.5,1.3,3,2.6,4.5,3.8
				c0.7,0.6,1.4,1.2,2.1,1.8c0.2,0.1,0.3,0.3,0.5,0.1c0.1-0.1,0-0.3-0.2-0.5c-0.3-0.3-0.7-0.6-1-1c-1.5-1.3-3-2.7-4.5-4
				c-1.3-1.1-2.6-2.2-3.8-3.4c-0.3-0.3-0.7-0.6-1-0.9c0-0.1,0.1-0.1,0.1-0.1c0.5-0.6,1-1.2,1.3-1.9c0.2-0.4,0.3-0.8,0.3-1.3
				c0-0.2,0-0.4-0.2-0.4c-0.2,0-0.2,0.2-0.3,0.3c-0.2,0.5-0.4,1-0.7,1.4c-0.9,1.3-1.9,2.4-3.2,3.3c-0.1,0.1-0.2,0.1-0.3,0.3
				c-0.1,0.1-0.1,0.3,0,0.4c0.1,0.1,0.2,0.2,0.3,0.2c0.1,0,0.2-0.1,0.3-0.1c0.2-0.1,0.3-0.2,0.5-0.4
				C413.2,182.3,413.5,182,414,181.6z" class="st19"></path>
			<path d="M399.7,202.8c0.5,0.2,0.9,0.4,1.2,0.5c0.2,0.1,0.5,0,0.6-0.2c0.2-0.3,0.1-0.7-0.2-0.9
				c-0.3-0.2-0.7-0.3-1.1-0.4c-0.8-0.4-1.5-0.8-2.2-1.3c-2-1.4-3.5-3.3-4.8-5.4c-0.2-0.3-0.3-0.5-0.5-0.8c-0.1-0.1-0.2-0.2-0.3-0.1
				c-0.1,0-0.1,0.2-0.1,0.3c0,0.1,0,0.2,0,0.3c0.1,0.6,0.4,1.1,0.7,1.6c0.6,1.2,1.4,2.2,2.3,3.2C396.7,201,398.2,202.1,399.7,202.8z" class="st19"></path>
			<path d="M400.8,189c-0.4-0.2-0.8-0.4-1.1-0.5c-0.3-0.1-0.5-0.2-0.8-0.3c-0.2-0.1-0.4,0-0.5,0.2
				c-0.1,0.2,0,0.4,0.2,0.5c0.1,0.1,0.2,0.2,0.4,0.3c0.7,0.4,1.5,0.8,2.3,1.2c0.7,0.4,1.5,0.7,2.2,1.1c0.7,0.4,1.5,0.7,2.2,1.1
				c1,0.5,2,1,3,1.5c0.1,0.1,0.2,0.1,0.4,0.1c0.3,0,0.4-0.1,0.5-0.3c0.1-0.2,0-0.4-0.2-0.6c-0.1-0.1-0.3-0.2-0.4-0.3
				c-1.2-0.6-2.5-1.2-3.7-1.8C403.7,190.4,402.2,189.8,400.8,189z" class="st19"></path>
			<path d="M369.7,167.2c-0.2-0.1-0.4-0.1-0.6,0.1c-0.2,0.2-0.2,0.4-0.2,0.6c0,0.2,0.1,0.3,0.2,0.5
				c0.7,1.2,1.5,2.3,2.2,3.5c0.6,1,1.2,1.9,1.9,2.8c0.1,0.1,0.2,0.2,0.3,0.3c0.1,0.1,0.2,0.1,0.4,0c0.1-0.1,0.2-0.2,0.1-0.4
				c-0.1-0.2-0.1-0.4-0.3-0.6c-1.2-2.2-2.5-4.3-3.8-6.4C369.9,167.4,369.8,167.2,369.7,167.2z" class="st19"></path>
			<path d="M371.8,175.2c0.1,0,0.1,0.1,0.1,0.1c0.2,0.1,0.4,0,0.6-0.1c0.1-0.1,0.1-0.3,0-0.6c-0.1-0.2-0.2-0.3-0.4-0.5
				c-1.1-1.1-2.3-2.1-3.4-3.1c-0.7-0.6-1.3-1.1-2-1.6c-0.1-0.1-0.3-0.2-0.4-0.2c-0.3,0-0.4,0.1-0.3,0.4c0,0.1,0.1,0.2,0.1,0.2
				c0.2,0.2,0.3,0.4,0.5,0.6c1.5,1.5,3.1,3,4.7,4.4C371.4,174.9,371.6,175.1,371.8,175.2z" class="st19"></path>
			<path d="M411,177.8c0.2,0.1,0.4,0.1,0.6,0.2c0.7,0.2,1.4,0.2,2.1-0.1c0.4-0.2,0.7-0.5,0.7-1c0-0.1,0-0.3-0.1-0.4
				c-0.1-0.1-0.2,0-0.3,0.1c-0.1,0-0.1,0.1-0.2,0.1c-0.4,0.3-0.8,0.5-1.3,0.4c-0.4,0-0.8-0.2-1.2-0.4c-0.8-0.4-1.3-1-1.6-1.9
				c-0.1-0.3-0.3-0.5-0.6-0.5c-0.3,0-0.4,0.3-0.4,0.7c0,0.2,0.1,0.4,0.2,0.7C409.3,176.6,410.1,177.3,411,177.8z" class="st19"></path>
			<path d="M413.1,200.2c-0.1,0-0.2-0.1-0.3-0.1c-0.2-0.1-0.3-0.1-0.5-0.2c-0.1,0-0.2,0-0.3,0.1c-0.1,0.1,0,0.2,0,0.3
				c0.1,0.1,0.2,0.2,0.3,0.3c0.8,0.7,1.7,1.3,2.6,1.9c0.5,0.4,1.1,0.7,1.6,1.1c0.4,0.3,0.8,0.5,1.3,0.8c0.3,0.2,0.5,0.1,0.6-0.2
				c0.1-0.3,0.1-0.5-0.2-0.7c-0.3-0.2-0.5-0.4-0.8-0.5c-0.8-0.5-1.5-1-2.3-1.4C414.5,201,413.8,200.5,413.1,200.2z" class="st19"></path>
			<path d="M410.6,200c-0.1-0.1-0.3-0.2-0.4-0.1c-0.1,0.1,0,0.3,0.1,0.4c0,0,0,0,0,0.1c0.2,0.2,0.4,0.5,0.6,0.7
				c1,1,2,2,3,3c0.2,0.1,0.3,0.3,0.5,0.4c0.2,0.1,0.4,0.1,0.5-0.1c0.1-0.1,0.1-0.4,0-0.6c-0.1-0.1-0.1-0.2-0.2-0.3
				c-1-0.9-2-1.8-3-2.7C411.4,200.5,411,200.2,410.6,200z" class="st19"></path>
			<path d="M410.7,204.3c0.1,0.1,0.2,0.1,0.4,0c0.3-0.1,0.4-0.4,0.3-0.7c0-0.1-0.1-0.2-0.2-0.3c-0.8-1-1.6-2.1-2.4-3.1
				c-0.2-0.2-0.4-0.4-0.7-0.7c-0.1-0.1-0.2-0.1-0.3-0.2c-0.1,0-0.2,0-0.2,0.2c0,0.1,0,0.2,0.1,0.3c0.1,0.3,0.3,0.6,0.5,0.9
				c0.7,1.1,1.5,2.2,2.2,3.2C410.4,204.1,410.5,204.3,410.7,204.3z" class="st19"></path>
			<path d="M394.5,203c0.7,0.2,1.4,0.4,2.1,0.4c0.1,0,0.2,0,0.3,0c0.3-0.1,0.4-0.2,0.5-0.5c0-0.2-0.1-0.4-0.3-0.6
				c-0.1-0.1-0.2-0.1-0.3-0.1c-0.6-0.1-1.3-0.2-1.9-0.2c-0.2,0-0.3,0-0.5,0.1c-0.3,0.1-0.3,0.4-0.1,0.6
				C394.3,202.9,394.4,203,394.5,203z" class="st19"></path>
			<path d="M408.1,187.1c0-0.2,0.1-0.3,0.1-0.5c0-0.4-0.1-0.8-0.1-1.2c0-0.2-0.1-0.4-0.2-0.6c-0.1-0.2-0.2-0.3-0.4-0.3
				c-0.2,0-0.3,0.2-0.4,0.3c0,0.1,0,0.2-0.1,0.3c-0.1,0.5-0.1,1.1,0,1.6c0,0.1,0.1,0.3,0.1,0.4c0.1,0.2,0.3,0.3,0.5,0.3
				C407.8,187.5,408,187.4,408.1,187.1z" class="st19"></path>
			<path d="M407.5,189.3c-0.1,0.2-0.1,0.5-0.2,0.7c0,0.3-0.1,0.5-0.1,0.8c0,0.3,0.2,0.6,0.5,0.7
				c0.3,0.1,0.5-0.1,0.7-0.4c0-0.1,0.1-0.2,0.1-0.3c0-0.4,0.1-0.9,0-1.3c0-0.1,0-0.3-0.1-0.4c-0.1-0.3-0.4-0.3-0.6-0.1
				C407.7,189.1,407.6,189.2,407.5,189.3z" class="st19"></path>
			<path d="M405.7,189c-0.2,0.4-0.3,0.8-0.3,1.2c0,0.2,0,0.4,0.3,0.6c0.3,0.2,0.7,0.1,0.8-0.4c0.1-0.4,0.2-0.8,0.2-1.2
				c0-0.1,0-0.3,0-0.4c-0.1-0.2-0.1-0.4-0.3-0.4c-0.2,0-0.4,0.1-0.5,0.3C405.8,188.7,405.7,188.8,405.7,189z" class="st19"></path>
			<path d="M395.6,201.1c0.2-0.4-0.1-0.8-0.6-0.7c-0.5,0-1,0.1-1.4,0.2c-0.2,0-0.3,0.1-0.4,0.2c-0.2,0.2-0.2,0.5,0,0.6
				c0.1,0,0.2,0.1,0.2,0.1c0.6,0,1.2,0,1.7,0C395.3,201.4,395.5,201.3,395.6,201.1z" class="st19"></path>
			<path d="M391.3,201.6c-0.4-0.1-0.9-0.2-1.4-0.1c-0.3,0-0.5,0.3-0.5,0.5c0,0.2,0.2,0.5,0.4,0.5
				c0.4,0.1,0.7,0.2,1.1,0.2c0.2,0,0.3,0,0.5-0.1c0.3-0.2,0.4-0.5,0.1-0.8C391.6,201.7,391.5,201.7,391.3,201.6z" class="st19"></path>
			<path d="M418.2,181.7c0.1,0,0.2,0.1,0.4,0.1c0.1,0,0.2-0.1,0.2-0.2c0-0.1,0-0.2-0.1-0.3c0,0-0.1,0-0.1-0.1
				c-0.2-0.1-0.4-0.3-0.6-0.5c-0.1-0.1-0.1-0.2-0.2-0.4c-0.1-0.1-0.1-0.3-0.3-0.2c-0.1,0.1-0.1,0.2-0.1,0.3c0,0.1,0,0.1,0,0.2
				C417.6,181.2,417.8,181.5,418.2,181.7z" class="st19"></path>
			<path d="M373.9,193.2c0.3,0.1,0.5,0.1,0.8,0.1c1.8,0.1,3.6,0.1,5.4,0.4c0.3,0,0.6,0.1,0.8,0.1
				c0.2,0,0.3,0.1,0.4,0.2c0.2,0.2,0.2,0.4,0,0.6c-0.1,0.1-0.3,0.1-0.4,0.2c-0.5,0.1-1,0.1-1.6,0.1c-1.4,0-2.7,0-4.1,0
				c0,0-0.1,0-0.1,0c-0.6-0.1-1.2-0.1-1.8-0.1c-2.8-0.1-5.6-0.2-8.5-0.2c-0.4,0-0.4-0.1-0.3,0.4c0.1,1.1,0.4,2.3,0.6,3.4
				c0.1,0.8,0.2,1.6,0.3,2.4c0,0.1,0,0.3,0,0.4c-0.1,0.3-0.3,0.6-0.7,0.6c-0.3,0-0.6-0.2-0.8-0.5c0-0.1-0.1-0.2-0.1-0.4
				c-0.3-1.3-0.4-2.7-0.6-4.1c0-0.1,0-0.3-0.1-0.4c-0.1,0.2-0.1,0.3-0.2,0.5c-0.2,0.9-0.4,1.7-0.6,2.6c-0.1,0.2-0.1,0.5-0.2,0.7
				c-0.1,0.1-0.1,0.2-0.2,0.3c-0.3,0.3-0.6,0.2-0.8-0.2c-0.1-0.2-0.1-0.4-0.1-0.6c0-0.5,0.1-0.9,0.1-1.4c0.2-1.5,0.4-3,0.7-4.5
				c0.2-0.8,0.3-1.6,0.5-2.4c0-0.2,0.1-0.3,0.2-0.4c0.2-0.3,0.5-0.4,0.8-0.3c0.3,0.1,0.5,0.3,0.6,0.6c0.1,0.2,0.1,0.5,0.1,0.7
				c0,0.2,0.1,0.5,0.1,0.7c0,0.2,0.1,0.2,0.3,0.2c1.1,0,2.1,0.1,3.2,0.1c2,0.1,3.9,0.2,5.9,0.2C373.6,193.3,373.8,193.4,373.9,193.2
				z" class="st20"></path>
			<path d="M395.3,204.4c0.1-0.1,0.3,0,0.4,0c0.3,0,0.6,0,0.9,0c0,0.1,0.1,0.2,0.2,0.3c1.9,2.7,4.1,5,6.7,6.9
				c1.2,0.9,2.4,1.7,3.8,2.2c0.1,0,0.2,0.1,0.2,0.1c0.2,0.1,0.4,0.1,0.6-0.1c0.8-0.9,1.7-1.8,2.5-2.7c0.3-0.3,0.5-0.5,0.8-0.8
				c0.1-0.1,0.2-0.1,0.3-0.2c0.1-0.1,0.3-0.1,0.4,0c0.1,0.1,0.1,0.3,0,0.4c-0.1,0.2-0.2,0.4-0.4,0.6c-0.8,1.1-1.7,2.2-2.6,3.2
				c-0.1,0.1-0.1,0.2-0.2,0.3c0,0-0.1,0.1,0,0.1c0,0,0.1,0,0.1,0c0.1-0.2,0.3-0.2,0.4-0.3c1-0.6,2-1.2,3-1.8
				c0.2-0.1,0.4-0.2,0.6-0.3c0.4-0.1,0.8,0,1,0.3c0.2,0.3,0.2,0.7-0.1,1c-0.2,0.2-0.3,0.3-0.5,0.4c-0.9,0.5-1.8,1.1-2.7,1.6
				c-1.3,0.8-2.7,1.6-4,2.4c-0.2,0.1-0.5,0.3-0.7,0.4c-0.2,0.1-0.4,0.2-0.6,0.2c-0.3,0-0.6-0.1-0.7-0.5c-0.1-0.3-0.1-0.6,0.2-0.9
				c0.3-0.4,0.6-0.7,1-1.1c0.3-0.3,0.5-0.6,0.8-0.8c-0.1-0.1-0.2-0.1-0.2-0.2c-3.9-2.1-7.1-5-9.7-8.7
				C396.1,205.9,395.6,205.2,395.3,204.4z" class="st20"></path>
			<path d="M415.9,196.8c-0.3-0.1-0.6-0.3-0.9-0.4c0.4-1.3,0.7-2.5,1.1-3.8c0-0.1,0.1-0.2,0.1-0.3
				c0.1-0.3,0.1-0.3-0.1-0.6c-0.2-0.2-0.2-0.3-0.1-0.6c0.2-0.4,0.3-0.8,0.6-1.1c0.1-0.2,0.3-0.3,0.5-0.2c0.2,0.1,0.4,0,0.5-0.2
				c0-0.1,0.1-0.1,0.1-0.2c0.1-0.1,0.3-0.2,0.5-0.1c0.4,0.1,0.7,0.3,1.1,0.4c1.7,0.8,3.5,1.6,5.2,2.5c0.3,0.2,0.4,0.3,0.3,0.7
				c0,0,0,0,0,0.1c-0.1,0.4-0.1,0.4,0.2,0.5c0.3,0.2,0.3,0.3,0.2,0.6c-0.1,0.3-0.2,0.6-0.4,0.9c-0.1,0.3-0.2,0.4-0.5,0.3
				c-0.1,0-0.2,0-0.2,0.1c-0.7,1.3-1.6,2.6-2.4,3.8c-0.3-0.1-0.6-0.3-0.8-0.4c0.8-1.3,1.7-2.6,2.6-3.9c-2.1-0.9-4.2-1.8-6.2-2.7
				C416.7,193.8,416.3,195.3,415.9,196.8z" class="st20"></path>
			<path d="M409,214.7c0,0.1-0.1,0.1-0.1,0c0,0,0-0.1,0-0.1C408.9,214.6,409,214.7,409,214.7z" class="st19"></path>
			<path d="M411,177.8c-0.9-0.5-1.7-1.2-2.1-2.1c-0.1-0.2-0.1-0.4-0.2-0.7c-0.1-0.3,0.1-0.6,0.4-0.7
				c0.3,0,0.5,0.1,0.6,0.5c0.2,0.9,0.8,1.5,1.6,1.9c0.4,0.2,0.8,0.4,1.2,0.4c0.5,0.1,0.9-0.1,1.3-0.4c0.1,0,0.1-0.1,0.2-0.1
				c0.1-0.1,0.2-0.1,0.3-0.1c0.1,0.1,0.2,0.2,0.1,0.4c-0.1,0.5-0.3,0.8-0.7,1c-0.7,0.4-1.4,0.3-2.1,0.1
				C411.4,177.9,411.2,177.9,411,177.8z" class="st20"></path>
		</g>
		<path d="M415.9,196.8c0.4-1.5,0.8-3,1.2-4.6c2.1,0.9,4.1,1.8,6.2,2.7c-0.9,1.3-1.8,2.6-2.6,3.9
			C419.1,198.1,417.5,197.5,415.9,196.8z" class="st1"></path>
	</g>
</g>
</svg>
