<?xml version="1.0" encoding="utf-8"?>
<!-- Generator: Adobe Illustrator 27.9.0, SVG Export Plug-In . SVG Version: 6.00 Build 0)  -->
<svg version="1.1" id="Layer_1" xmlns:serif="http://www.serif.com/"
	 xmlns="http://www.w3.org/2000/svg" xmlns:xlink="http://www.w3.org/1999/xlink" x="0px" y="0px" viewBox="0 0 612 792"
	 style="enable-background:new 0 0 612 792;" xml:space="preserve">
<style type="text/css">
	.st0{fill:#0F2341;}
</style>
<path class="st0" d="M306,90C137,90,0,227,0,396c0,129.6,80.7,240.5,194.5,285c-2.7-24.2-5.1-61.4,1.1-87.9
	c5.6-23.9,35.9-152.1,35.9-152.1s-9.2-18.3-9.2-45.4c0-42.5,24.7-74.3,55.4-74.3c26.1,0,38.7,19.6,38.7,43.1
	c0,26.3-16.7,65.5-25.3,101.9c-7.2,30.5,15.3,55.3,45.3,55.3c54.4,0,96.2-57.3,96.2-140.1c0-73.3-52.6-124.5-127.8-124.5
	c-87.1,0-138.2,65.3-138.2,132.8c0,26.3,10.1,54.5,22.8,69.8c2.5,3,2.9,5.7,2.1,8.8c-2.3,9.7-7.5,30.4-8.5,34.7
	c-1.3,5.6-4.4,6.8-10.2,4.1c-38.2-17.8-62.1-73.7-62.1-118.5c0-96.5,70.1-185.2,202.2-185.2c106.2,0,188.6,75.6,188.6,176.7
	c0,105.5-66.5,190.3-158.8,190.3c-31,0-60.2-16.1-70.1-35.1c0,0-15.3,58.4-19.1,72.7c-6.9,26.6-25.6,59.9-38,80.2
	C244,697.2,274.5,702,306,702c169,0,306-137,306-306C612,227,475,90,306,90L306,90z"/>
</svg>
