<?xml version="1.0" encoding="utf-8"?>
<!-- Generator: Adobe Illustrator 27.9.0, SVG Export Plug-In . SVG Version: 6.00 Build 0)  -->
<svg version="1.1" id="Layer_1" xmlns:serif="http://www.serif.com/"
	 xmlns="http://www.w3.org/2000/svg" xmlns:xlink="http://www.w3.org/1999/xlink" x="0px" y="0px" viewBox="0 0 612 792"
	 style="enable-background:new 0 0 612 792;" xml:space="preserve">
<style type="text/css">
	.st0{fill-rule:evenodd;clip-rule:evenodd;fill:#0F2341;}
</style>
<path class="st0" d="M306,90c168.9,0,306,137.1,306,306S474.9,702,306,702S0,564.9,0,396S137.1,90,306,90z M489.3,303.9
	c-4.4-16.5-17.4-29.4-33.8-33.8c-29.8-8-149.4-8-149.4-8s-119.6,0-149.4,8c-16.5,4.4-29.4,17.4-33.8,33.8c-8,29.8-8,92.1-8,92.1
	s0,62.2,8,92.1c4.4,16.5,17.4,29.4,33.8,33.8c29.8,8,149.4,8,149.4,8s119.6,0,149.4-8c16.5-4.4,29.4-17.4,33.8-33.8
	c8-29.8,8-92.1,8-92.1S497.2,333.8,489.3,303.9L489.3,303.9z M267.7,453.4V338.6l99.4,57.4L267.7,453.4L267.7,453.4z"/>
</svg>
